<svg width="400" height="400" viewBox="0 0 400 400" fill="none" xmlns="http://www.w3.org/2000/svg">
<path d="M248.301 326.603C258.899 321.4 268.852 315.9 278.151 310.103C287.452 304.298 295.899 298.501 303.501 292.703C299.901 294.502 296.55 296.453 293.452 298.553C290.348 300.653 287.1 302.701 283.702 304.703L282.202 305.902C278.399 308.101 274.649 310.201 270.952 312.203C267.249 314.199 263.399 316.103 259.401 317.902C263.797 315.3 268.501 312.4 273.501 309.203C273.3 309.203 273.202 309.099 273.202 308.902C272.198 309.502 270.952 310.351 269.452 311.453C267.952 312.549 266.348 313.599 264.651 314.603C262.95 315.601 261.352 316.449 259.852 317.152C258.352 317.851 257 318.203 255.801 318.203C255 318.203 253.799 318.601 252.201 319.402C250.601 320.199 248.803 321.099 246.801 322.103C244.805 323.101 242.854 324.001 240.951 324.802C239.053 325.599 237.402 326.001 236 326.001C238.602 325.2 241.303 324.052 244.102 322.552C246.905 321.052 249.305 319.402 251.301 317.603L244.701 320.603C244.504 320.603 244.4 320.4 244.4 320.001C244.4 319.401 245.802 318.149 248.601 316.251C251.404 314.349 254.648 312.249 258.351 309.952C262.048 307.649 265.898 305.302 269.9 302.901C273.898 300.501 277.101 298.501 279.5 296.901L311.9 274.401L312.5 272.301C306.697 275.703 300.898 279.252 295.102 282.951C289.297 286.648 283.5 290.197 277.702 293.601C279.3 291.997 281.7 290.3 284.901 288.499C288.098 286.7 290.797 284.702 293.001 282.499C293.399 281.702 294.3 280.901 295.702 280.101C304.702 273.904 313.401 267.499 321.802 260.9C330.203 254.301 337.702 247.101 344.302 239.3L345.802 236.602L345.202 236.901C342.999 240.101 339.751 243.402 335.452 246.8C331.149 250.202 327.399 253.101 324.202 255.499L317.602 260.601C316.799 261.003 315.952 261.65 315.051 262.55C314.15 263.45 313.199 263.9 312.201 263.9C311.797 263.9 311.601 263.703 311.601 263.3C311.601 262.902 311.947 262.4 312.65 261.8C313.349 261.2 313.898 260.802 314.3 260.601L319.4 256.4C323.601 253.002 327.998 249.101 332.601 244.701C337.199 240.305 340.898 235.702 343.701 230.901L344.9 228.501C344.9 228.103 344.947 227.653 345.05 227.151C345.148 226.655 345.2 226.204 345.2 225.801C345.2 224.601 344.3 223.401 342.499 222.201C340.7 221 338.698 219.904 336.499 218.9C334.296 217.902 332.196 217.1 330.2 216.5C328.198 215.9 327.096 215.601 326.899 215.601C319.1 213.403 311.196 211.655 303.2 210.351C295.198 209.053 287.397 206.901 279.8 203.901L275.9 202.401C272.498 201.202 269.197 199.303 266 196.702C262.799 194.104 259.898 190.204 257.301 185.001C257.498 185.804 257.649 186.853 257.75 188.151C257.85 189.454 258.098 190.303 258.5 190.702L257.9 190.101C256.101 187.303 254.796 184.354 254 181.25C253.203 178.152 252.801 175.203 252.801 172.4C252.801 170.6 253.153 168.702 253.852 166.701C254.549 164.703 255.202 163.002 255.801 161.6L257.901 158.3C259.899 155.3 262.448 151.902 265.551 148.1C268.649 144.303 271.799 140.802 275 137.6C278.197 134.403 281.25 131.652 284.15 129.35C287.046 127.053 289.199 125.9 290.601 125.9C291.201 125.9 291.749 126.004 292.249 126.2C292.747 126.402 293.196 126.603 293.601 126.8C294.599 125.403 296.046 124.001 297.951 122.6C299.849 121.203 301.799 119.952 303.801 118.85C305.797 117.753 307.701 116.853 309.5 116.15C311.301 115.452 312.6 115.1 313.4 115.1C314.601 115.1 315.201 115.302 315.201 115.7C315.201 116.3 314.699 117.05 313.701 117.95C312.697 118.85 311.9 119.6 311.301 120.2C315.299 120.003 319.35 119.15 323.451 117.65C327.547 116.15 331.297 114.603 334.701 113L336.5 119.3C339.898 118.301 343.102 117.8 346.102 117.8C346.899 117.8 347.549 118.001 348.051 118.4C348.547 118.803 349.102 119 349.701 119C350.3 119 350.9 118.953 351.5 118.85C352.102 118.751 352.799 118.601 353.602 118.4C353.198 119 352.852 119.6 352.551 120.2C352.25 120.8 352.102 121.503 352.102 122.3C352.102 122.9 352.297 123.402 352.702 123.8C351.501 124.203 350.452 124.601 349.552 125C348.652 125.403 347.7 126.102 346.702 127.1L350.602 128C351.801 127.602 353 127.4 354.202 127.4C355.401 127.4 356.602 127.203 357.802 126.8L362.001 125.6C361.599 126.2 360.548 126.753 358.853 127.25C357.15 127.751 355.8 128.202 354.802 128.6C356.198 128.403 357.601 128.3 359.001 128.3C360.399 128.3 361.401 128.3 362.001 128.3V128.6C359.798 128.6 357.548 128.802 355.251 129.2C352.95 129.603 350.901 130.001 349.103 130.4L345.802 132.8C347.001 132.8 348.202 132.753 349.402 132.65C350.603 132.552 351.9 132.5 353.302 132.5C346.298 134.3 339.099 136.4 331.702 138.8C324.3 141.2 317.198 144.153 310.401 147.65C303.6 151.152 297.399 155.202 291.801 159.8C286.199 164.404 281.901 169.803 278.901 175.999C280.501 175.999 282.098 176.201 283.702 176.6C285.3 177.003 286.899 177.303 288.501 177.499H288.802C292.8 177.903 296.7 178.7 300.501 179.899C304.298 181.099 308.198 181.999 312.202 182.599H312.802C317.001 183.602 321.3 184.653 325.702 185.748C330.098 186.85 334.448 188.2 338.751 189.799C343.05 191.403 347.198 193.301 351.202 195.498C355.2 197.701 358.8 200.402 362.001 203.599L364.702 206.599C366.899 208.998 368.399 211.7 369.202 214.7C369.999 217.7 370.401 220.7 370.401 223.7V225.8C370.401 231.602 369.098 237.05 366.501 242.148C363.899 247.248 360.698 251.951 356.901 256.248C353.1 260.553 349.102 264.4 344.901 267.799C340.702 271.201 336.999 274.201 333.801 276.799C324.201 284.6 313.799 291.545 302.602 297.649C291.399 303.749 280.899 309.997 271.102 316.399C270.098 316.999 268.702 317.795 266.901 318.799C265.102 319.797 263.151 320.795 261.051 321.799C258.951 322.797 256.748 323.748 254.451 324.649C252.154 325.55 250.102 326.199 248.301 326.603ZM256.102 157.104C255.899 157.704 255.6 158.707 255.202 160.104C254.798 161.505 254.399 162.908 254.001 164.304C253.603 165.705 253.204 166.956 252.802 168.054C252.404 169.156 252.103 169.704 251.902 169.704C251.504 169.704 251.302 169.306 251.302 168.503C251.302 166.905 251.902 164.505 253.103 161.304C254.302 158.107 255.3 156.105 256.103 155.304V157.104H256.102ZM256.102 155.004L259.401 149.304C260.001 149.304 260.499 149.257 260.901 149.154C261.299 149.056 261.698 149.004 262.102 149.004C261.5 150.406 260.549 151.456 259.25 152.154C257.948 152.857 256.899 153.804 256.102 155.004ZM333.801 245.303V245.604L336.5 243.502C338.9 241.305 341.549 238.554 344.451 235.253C347.347 231.954 348.801 228.607 348.801 225.205C348.801 224.206 348.697 223.508 348.5 223.104L347.602 221.604C345.202 218.806 342.051 216.457 338.151 214.554C334.251 212.656 330.299 211.156 326.301 210.054C322.297 208.956 318.547 208.156 315.051 207.654C311.549 207.158 308.901 206.806 307.102 206.604H304.102C301.297 206.604 298.748 206.003 296.452 204.804C294.149 203.604 291.501 202.507 288.501 201.503L281.302 199.104C277.103 197.707 273.501 195.855 270.501 193.554C267.501 191.257 264.399 188.604 261.202 185.604C261.202 183.205 261.149 181.658 261.052 180.955C260.948 180.256 260.7 178.906 260.302 176.904C259.702 178.705 259.402 180.205 259.402 181.404C259.402 184.605 260.453 187.404 262.552 189.804C264.651 192.204 267.001 194.257 269.603 195.954C272.199 197.655 274.65 199.005 276.953 200.003C279.25 201.007 280.502 201.607 280.703 201.804C284.101 202.807 287.799 203.806 291.803 204.804C295.801 205.807 299.604 206.806 303.203 207.804L310.703 209.904C314.303 210.706 318.25 211.605 322.553 212.604C326.852 213.607 330.803 214.755 334.403 216.054C338.003 217.357 341.003 218.806 343.403 220.404C345.803 222.008 347.003 223.807 347.003 225.804C347.003 228.007 346.253 230.107 344.753 232.104C343.253 234.104 341.702 236.303 340.105 238.704L333.801 245.303ZM332.001 140.004C329.001 141.007 326.001 141.954 323.001 142.854C320.001 143.754 317.101 145.005 314.302 146.604L311.001 148.404C311.198 148.606 311.302 148.807 311.302 149.004C314.7 147.204 318.3 145.606 322.103 144.204C325.9 142.807 329.701 141.607 333.501 140.604V140.904C333.899 140.506 334.103 140.206 334.103 140.004C334.103 139.807 333.9 139.704 333.501 139.704C333.3 139.704 333.052 139.755 332.751 139.854C332.452 139.957 332.198 140.004 332.001 140.004ZM328.401 145.404C326.797 146.004 325.149 146.557 323.452 147.054C321.751 147.555 320.1 148.207 318.501 149.004C319.702 147.804 321.001 146.904 322.401 146.304C323.797 145.704 325.149 145.156 326.452 144.654C327.751 144.157 329.048 143.656 330.352 143.154C331.649 142.657 332.7 141.907 333.5 140.904C333.5 142.306 333 143.206 332 143.604C330.999 144.007 329.797 144.607 328.401 145.404ZM355.102 137.004C353.301 137.004 351.5 137.004 349.702 137.004C347.901 137.004 346.2 137.107 344.602 137.304C348.801 136.507 353 135.907 357.202 135.504L355.102 137.004Z" fill="black"/>
<path d="M178.001 327.197C177.8 325.593 177.649 323.945 177.551 322.248C177.448 320.547 177.402 318.797 177.402 316.998C177.402 316.195 177.449 315.445 177.551 314.748C177.65 314.045 177.701 313.295 177.701 312.498L178.301 298.398C177.102 301.998 176.501 305.695 176.501 309.498C176.501 313.295 176 317.195 175.001 321.197C174.8 319.998 174.701 318.797 174.701 317.597C174.701 316.397 174.701 315.197 174.701 313.997C174.298 313.997 174.101 314.546 174.101 315.647C174.101 316.743 173.997 317.493 173.8 317.897V322.096C173.2 322.494 172.901 322.795 172.901 322.996C172.901 324.392 173 325.846 173.201 327.346C173.398 328.846 173.501 330.092 173.501 331.096C173.501 331.494 173.449 331.696 173.352 331.696C173.248 331.696 173.202 331.796 173.202 331.997C172.602 330.993 172.251 329.747 172.152 328.247C172.048 326.747 171.598 325.194 170.801 323.597C170.6 323.794 170.501 324.394 170.501 325.398C170.501 326.396 170.398 326.898 170.201 326.898C169.601 326.898 169.099 325.998 168.701 324.197C168.298 322.398 167.998 320.195 167.801 317.597C167.6 314.995 167.501 312.394 167.501 309.796C167.501 307.194 167.501 305.095 167.501 303.497C167.501 300.296 167.75 297.145 168.251 294.046C168.748 290.944 169.001 287.898 169.001 284.898L167.501 283.097C165.701 291.093 164.501 299.296 163.901 307.697C163.699 307.097 163.549 306.545 163.451 306.047C163.347 305.547 163.301 304.998 163.301 304.399C163.301 303.596 163.348 302.846 163.451 302.149C163.55 301.446 163.601 300.696 163.601 299.899C163.601 299.297 163.601 298.647 163.601 297.948C163.601 297.245 163.399 296.598 163 295.999C163.398 286.399 164.397 277.099 166 268.099C167.599 259.099 169.3 250.099 171.101 241.099C170.899 241.099 170.449 242.103 169.75 244.099C169.047 246.101 168.297 248.351 167.5 250.849C166.698 253.353 165.948 255.851 165.25 258.349C164.547 260.853 164.097 262.601 163.9 263.599C163.299 266.599 162.85 269.65 162.549 272.749C162.249 275.853 161.701 277.399 160.9 277.399C160.299 277.399 160 276.797 160 275.598C160 275.2 160.052 274.848 160.15 274.547C160.253 274.248 160.299 273.901 160.299 273.498C161.303 265.697 162.549 257.949 164.049 250.248C165.549 242.551 167.096 234.798 168.699 226.999L164.799 228.798C164.799 228.602 164.748 228.349 164.65 228.048C164.546 227.749 164.5 227.402 164.5 226.999C165.499 226.999 166.3 226.952 166.9 226.849C167.5 226.75 168.1 226.699 168.7 226.699C171.7 212.899 174.799 199.099 178 185.299C181.197 171.5 184.797 157.699 188.8 143.9L186.7 145.7V143L187.3 140.9C187.3 139.901 187.197 139.1 187 138.5C186.799 137.9 186.7 137.202 186.7 136.4C186.897 133.002 187.9 129.852 189.7 126.95C191.5 124.054 192.499 121.002 192.7 117.8C192.897 115.602 193.197 113.352 193.6 111.05C193.998 108.753 194.898 107.6 196.299 107.6C197.499 107.6 198.399 107.703 198.999 107.9C198.597 107.103 198.399 106.503 198.399 106.1C198.399 105.5 198.647 104.103 199.149 101.9C199.647 99.702 200.397 98.6 201.399 98.6C201.999 98.6 202.497 98.952 202.899 99.65C203.297 100.353 203.696 101.103 204.1 101.9C205.698 101.502 206.696 100.7 207.1 99.5C207.498 98.3 207.7 96.903 207.7 95.3L213.7 98C214.098 97.602 214.6 97.203 215.2 96.8C215.8 96.402 216.198 96.2 216.399 96.2C216.596 96.2 216.747 96.252 216.85 96.35C216.948 96.453 217.098 96.5 217.299 96.5H217.6C217.795 96.5 218.096 96.2 218.498 95.6C219.498 96.2 220.496 96.851 221.498 97.55C222.498 98.253 223.496 98.6 224.498 98.6H225.699L226.599 100.7C226.599 100.302 226.697 100.054 226.898 99.95C227.095 99.852 227.296 99.603 227.498 99.2C227.498 98.802 227.447 98.554 227.35 98.45C227.246 98.352 227.2 98.202 227.2 98L227.499 97.7C227.897 98.103 228.048 98.554 227.95 99.05C227.846 99.551 227.997 100.1 228.399 100.7L229.6 99.2C229.6 97.804 229.496 96.552 229.299 95.45C229.098 94.353 228.998 93.2 228.998 92C229.6 92.6 229.998 93.5 230.199 94.7C230.396 95.9 230.695 97.002 231.099 98L231.398 92.6C231.796 92.6 231.998 93.603 231.998 95.6C231.998 96.603 231.947 97.751 231.85 99.05C231.746 100.353 231.7 101.202 231.7 101.6L233.2 103.4L234.399 99.8C234.596 100.803 234.747 101.652 234.85 102.35C234.948 103.053 235.397 103.803 236.2 104.6C235.796 105.003 235.497 105.2 235.3 105.2H235.601V112.7L235.3 118.4C235.099 120.8 234.999 123.2 234.999 125.6C234.999 128 234.999 130.4 234.999 132.8C234.999 136.803 235.046 140.703 235.149 144.5C235.249 148.301 235.397 152.202 235.6 156.2C235.795 159.402 236.799 162.501 238.6 165.501C240.399 168.501 241.698 172.002 242.498 176.001C243.498 181.804 243.998 187.302 243.998 192.501C243.998 197.704 244.795 203.001 246.398 208.4C246.595 209.6 246.849 210.852 247.148 212.15C247.449 213.454 247.599 214.602 247.599 215.6C247.599 216.401 247.449 217.001 247.148 217.4C246.849 217.803 246.699 218.502 246.699 219.501C246.699 226.503 247.847 233.252 250.148 239.75C252.445 246.252 253.998 252.4 254.798 258.199C254.995 260.599 255.444 262.803 256.148 264.799C256.847 266.801 257.544 268.803 258.248 270.799C258.947 272.801 259.646 275.051 260.35 277.549C261.047 280.049 261.596 282.996 261.998 286.401C259.998 282.397 258.348 278.399 257.049 274.401C255.746 270.401 254.096 266.6 252.1 263.001C252.295 266.202 253.045 269.353 254.35 272.45C255.647 275.554 256.698 278.6 257.498 281.6L254.498 276.2C254.297 276.2 254.199 276.3 254.199 276.501L256.599 282.8C256.195 283.198 255.997 283.7 255.997 284.3C255.997 284.902 256.645 286.349 257.948 288.652C259.247 290.949 259.897 292.597 259.897 293.601C258.895 292.402 258.098 291.05 257.497 289.55C256.897 288.05 255.895 286.8 254.497 285.8L255.397 289.402L254.797 289.701C253.193 289.701 251.693 288.201 250.297 285.201C248.895 282.201 247.494 278.752 246.098 274.851C244.696 270.951 243.346 267.201 242.047 263.601C240.744 260.001 239.496 257.601 238.297 256.402C238.695 259.603 239.295 262.754 240.098 265.851C240.895 268.955 241.793 272.105 242.797 275.3C239.596 268.101 236.947 261.853 234.848 256.55C232.746 251.253 231.098 245.3 229.897 238.7L228.098 239.3C228.496 241.7 229.043 244.302 229.746 247.101C230.445 249.904 230.797 252.402 230.797 254.601C230.797 255.201 230.496 255.501 229.897 255.501C229.495 255.501 229.043 254.901 228.547 253.7C228.045 252.501 227.596 251.104 227.197 249.501C226.793 247.901 226.394 246.253 225.996 244.55C225.594 242.855 225.293 241.402 225.098 240.2C222.098 241.204 218.994 242.253 215.797 243.35C212.596 244.452 209.395 245.299 206.197 245.901L204.996 246.2L206.197 247.401C206.197 248.202 206.047 248.651 205.746 248.751C205.447 248.855 205.297 249.103 205.297 249.501V250.101C205.297 250.902 204.996 251.404 204.397 251.601C203.797 251.601 203.245 251.554 202.747 251.451C202.247 251.353 201.796 251.301 201.397 251.301C200.995 251.301 200.446 251.803 199.747 252.801C199.044 253.805 198.497 254.301 198.099 254.301C197.695 254.301 197.199 253.805 196.599 252.801C195.998 251.803 195.497 251.106 195.099 250.701C195.099 251.705 194.949 252.201 194.649 252.201C194.349 252.201 193.899 252.703 193.298 253.701C192.099 252.502 191.396 251.301 191.198 250.101C189.196 259.902 186.895 270.304 184.298 281.3C181.696 292.298 180.196 303.097 179.798 313.7V317.6C179.798 317.998 179.597 319.448 179.198 321.95C178.798 324.445 178.399 326.195 178.001 327.197ZM169.602 238.399C169.4 238.599 169.199 238.697 169.001 238.697C169.001 237.7 169.151 236.95 169.451 236.448C169.751 235.952 170 235.399 170.201 234.798C169.198 235.4 168.401 236.552 167.801 238.249C167.201 239.949 166.699 241.75 166.301 243.648C165.899 245.55 165.551 247.449 165.251 249.347C164.951 251.249 164.698 252.699 164.501 253.697C164.698 253.898 164.801 254.101 164.801 254.297C165.8 251.899 166.649 249.301 167.352 246.498C168.05 243.699 168.8 241 169.602 238.399ZM171.401 231.499V230.599C170 231.001 169.25 231.55 169.151 232.249C169.047 232.952 168.898 233.8 168.701 234.798C168.898 234.4 169.301 233.95 169.901 233.448C170.501 232.952 170.998 232.3 171.401 231.499ZM169.901 229.999C170.299 229 170.8 228.25 171.401 227.749C172.001 227.251 172.498 226.501 172.901 225.499L172.3 225.798C171.898 225.798 171.7 225.4 171.7 224.599L171.1 223.699L169.901 229.999ZM171.701 221.298L174.101 220.399L181.3 193.099C181.698 191.5 182.097 189.902 182.5 188.298C182.898 186.7 183.198 184.999 183.4 183.198C183.4 182.598 183.348 181.899 183.25 181.098C183.147 180.301 183.101 179.499 183.101 178.698C183.297 176.702 184 175.098 185.201 173.898C186.402 172.698 187.301 170.898 187.901 168.499C188.698 165.101 189.5 161.5 190.3 157.698C191.097 153.901 191.599 150.198 191.8 146.598C193 145.998 193.648 145.548 193.75 145.248C193.849 144.948 193.999 144.1 194.2 142.698C192.596 143.701 191.2 145.698 190 148.698C188.8 151.698 188.097 154.6 187.9 157.398V159.498C186.897 160.501 186.048 162 185.35 163.998C184.647 165.999 183.999 168.301 183.4 170.897C182.799 173.499 182.247 176.1 181.75 178.697C181.249 181.299 180.799 183.6 180.4 185.597C178.999 191.4 177.447 197.249 175.75 203.147C174.05 209.05 172.699 215.102 171.701 221.298ZM186.401 134.899C186.401 135.499 186.297 135.799 186.101 135.799C185.097 135.799 184.601 135.101 184.601 133.699C184.601 132.902 184.648 131.951 184.75 130.849C184.849 129.752 184.9 128.899 184.9 128.299C185.697 129.701 186.147 130.849 186.25 131.749C186.35 132.649 186.401 133.698 186.401 134.899ZM185.201 128.299V127.699C185 127.901 184.901 128.102 184.901 128.299H185.201ZM188.201 123.198C187.399 124.6 186.8 125.5 186.401 125.898C185.998 126.301 185.599 126.901 185.201 127.698C185.201 126.7 185.3 125.701 185.501 124.698C185.698 123.7 186.598 123.198 188.201 123.198ZM221.202 211.099L223.602 210.798C223 206.402 222.448 201.602 221.952 196.399C221.45 191.201 220.399 187.203 218.802 184.399C218.202 183.602 217.902 182.703 217.902 181.699C217.902 180.701 218.099 179.801 218.502 179C218.9 178.203 219.104 177.303 219.104 176.299C219.104 173.9 218.752 170.801 218.053 167C217.35 163.203 216.403 160.203 215.203 158C216.201 157.4 216.703 156.903 216.703 156.5C216.703 155.9 216.502 155.202 216.103 154.4C215.099 155.6 214.603 156.5 214.603 157.1C214.603 157.7 214.603 158.801 214.603 160.4C214.603 161.6 214.65 163.002 214.751 164.6C214.851 166.204 215.3 167.501 216.103 168.5C215.699 168.902 215.501 169.399 215.501 170C215.698 176 216.149 181.203 216.853 185.6C217.55 190.001 217.902 193.901 217.902 197.299C217.902 197.9 217.851 198.551 217.752 199.25C217.65 199.953 217.604 200.6 217.604 201.199C216.202 194 215.1 186.752 214.303 179.449C213.502 172.15 212.699 164.703 211.903 157.099C211.501 157.699 211.303 158.702 211.303 160.099C211.303 161.102 211.35 162.101 211.453 163.099C211.551 164.102 211.603 165.101 211.603 166.099C211.603 175.099 210.449 183.499 208.152 191.298C205.851 199.099 203.699 206.5 201.703 213.499C204.103 212.5 205.902 211.999 207.103 211.999C208.302 211.999 210.298 211.802 213.103 211.398C213.9 211.398 214.453 211.249 214.751 210.948C215.052 210.648 215.399 210.499 215.802 210.499C215.999 210.499 216.251 210.648 216.552 210.948C216.853 211.249 217.101 211.398 217.302 211.398H219.402L218.502 205.698C218.9 206.702 219.252 207.648 219.553 208.548C219.852 209.448 220.399 210.302 221.202 211.099ZM224.801 238.399C224.6 237.602 224.5 237.001 224.5 236.598C224.5 236.2 224.098 235.998 223.301 235.998C219.701 236.4 216.799 237.15 214.602 238.248C212.399 239.349 211.301 240.099 211.301 240.497H211.602C211.198 240.497 210.852 240.249 210.551 239.747C210.25 239.249 209.899 238.997 209.5 238.997C208.699 238.997 207.648 239.349 206.352 240.046C205.047 240.749 204.2 241.599 203.801 242.597C203.399 241.599 203.098 241.097 202.901 241.097C202.7 241.298 202.602 241.499 202.602 241.697C203 242.5 203.299 243 203.5 243.197C203.697 243.398 204.199 243.498 205 243.498C206.398 243.498 207.297 242.898 207.701 241.697C207.701 242.297 207.898 242.597 208.301 242.597C209.299 242.597 210.748 242.249 212.651 241.546C214.549 240.849 216.2 240.3 217.602 239.898L224.801 238.399ZM203.202 253.998C203.202 254.199 203.3 254.4 203.501 254.598C203.501 254.401 203.45 254.297 203.353 254.297C203.248 254.297 203.202 254.199 203.202 253.998ZM204.401 256.097C203.999 255.699 203.801 255.398 203.801 255.197C203.801 255 203.697 254.799 203.5 254.597L205 255.197L204.401 256.097ZM205 255.197V252.498C205 251.898 205.1 251.5 205.301 251.297C205.699 251.701 205.901 252.498 205.901 253.697C205.901 254.5 205.602 255 205 255.197ZM211.602 259.097L212.5 260.898C211.901 260.701 211.602 260.101 211.602 259.097ZM217.901 201.798C217.901 202.399 217.901 203.05 217.901 203.749C217.901 204.452 218.001 205.099 218.202 205.698L217.901 201.798ZM226 235.999H225.701L226.301 238.099V236.298L226 235.999ZM229 233.899C229 233.297 228.799 232.999 228.4 232.999C227.998 232.999 227.8 233.298 227.8 233.899H229ZM229.602 236.899C229.198 236.501 229 236.251 229 236.149C229 236.049 228.598 235.999 227.801 235.999C227.998 236.2 228.102 236.599 228.102 237.198C228.702 237.198 229.198 237.1 229.602 236.899ZM229 101.299C229.197 101.299 229.498 101.102 229.9 100.699L229.601 100.399L229 101.299ZM237.702 110.299H238.001L237.401 109.699C236.999 109.699 236.698 110.852 236.501 113.149C236.3 115.451 236.202 117.4 236.202 118.999C236.202 120.002 236.3 120.851 236.501 121.549C236.698 122.252 236.999 122.702 237.401 122.899L237.702 110.299ZM239.5 99.499C239.098 100.502 238.75 101.351 238.451 102.049C238.15 102.752 237.898 103.502 237.701 104.299C237.701 103.3 237.748 102.302 237.851 101.299C237.949 100.3 237.999 99.199 237.999 97.999L239.5 99.499ZM241 113.299L240.102 118.999C239.698 117.799 239.45 116.201 239.352 114.199C239.248 112.202 238.797 110.899 238 110.299C239 110.299 239.6 110.552 239.801 111.049C239.998 111.55 240.401 112.3 241 113.299Z" fill="black"/>
<path d="M36 134.102C36.999 133.502 37.598 133.103 37.8 132.902C37.8 134.102 37.598 134.955 37.2 135.452C36.797 135.953 36.6 136.605 36.6 137.402L36 134.102ZM36.6 138.002C37.397 139.005 37.996 139.802 38.4 140.402C38.798 141.002 39.197 141.804 39.6 142.802V140.402C39.6 139.202 39.647 138.054 39.75 136.952C39.848 135.855 39.999 134.702 40.2 133.502C40.2 131.304 39.9 128.852 39.3 126.152C38.7 123.452 38.4 120.902 38.4 118.502C38.4 116.903 39.698 116.102 42.3 116.102C41.297 114.705 40.749 113.102 40.65 111.302C40.547 109.502 40.5 108.002 40.5 106.802C40.697 106.202 41.1 105.902 41.7 105.902C42.699 105.902 43.598 106.704 44.4 108.302C45.797 106.906 46.5 105.105 46.5 102.902C46.5 101.505 46.397 100.403 46.2 99.602L52.2 100.202V99.902C52.2 99.504 52.299 99.105 52.5 98.702C52.697 98.304 52.8 97.802 52.8 97.202L53.4 96.902C54.399 96.705 54.9 96.555 54.9 96.452C54.9 96.353 54.999 95.805 55.2 94.802C56.4 95.805 57.347 96.452 58.05 96.752C58.749 97.052 59.897 97.905 61.5 99.302L63.3 98.402V98.102C63.3 97.704 63.399 97.253 63.6 96.752C63.797 96.255 63.9 95.805 63.9 95.402C63.497 95.004 63.3 94.502 63.3 93.902C63.3 93.705 63.347 93.555 63.45 93.452C63.549 93.353 63.6 93.203 63.6 93.002C63.998 93.405 64.2 94.005 64.2 94.802C64.2 95.604 64.397 96.302 64.8 96.902L66 93.902L65.1 99.602L66.3 100.802L67.5 98.402L67.8 102.302C67.8 108.705 67.397 115.005 66.6 121.202C65.798 127.403 65.4 133.905 65.4 140.702C65.4 143.903 65.597 146.903 66 149.702C66.398 152.505 67.298 154.905 68.7 156.902C70.097 160.502 71.199 164.252 72 168.152C72.797 172.052 73.448 176.055 73.95 180.152C74.447 184.254 74.85 188.303 75.15 192.301C75.45 196.304 75.797 200.204 76.2 204.001C76.2 204.601 76.2 205.253 76.2 205.951C76.2 206.654 76.299 207.301 76.5 207.901V208.201C76.898 209.804 77.1 210.803 77.1 211.201C77.1 212.204 76.898 212.902 76.5 213.301C76.5 214.905 76.598 215.851 76.8 216.152C76.997 216.452 77.1 217.103 77.1 218.101L78 205.501C78.398 201.301 78.947 197.054 79.65 192.751C80.348 188.452 80.7 184.304 80.7 180.301L85.2 143.401L83.7 144.601C83.7 142.801 83.447 141.301 82.95 140.101C82.449 138.901 82.2 137.902 82.2 137.101C82.2 136.102 82.299 135.404 82.5 135.001L84.3 129.001C84.698 128.002 84.999 127.004 85.2 126.001C85.397 125.002 85.5 124.004 85.5 123.001C85.298 122.401 85.2 121.501 85.2 120.301C85.2 119.303 85.247 118.155 85.35 116.851C85.448 115.553 85.898 114.704 86.7 114.301L87.3 113.701C87.698 113.504 88.149 113.401 88.65 113.401C89.147 113.401 89.597 113.303 90 113.101C89.798 112.304 89.7 111.203 89.7 109.801C89.7 108.203 90 106.304 90.6 104.101L91.2 99.301C91.8 98.701 92.4 98.401 93 98.401C93.6 98.401 93.999 98.753 94.2 99.451C94.397 100.154 94.697 101.002 95.1 102.001C96.496 100.604 97.5 98.851 98.1 96.751C98.7 94.651 99 92.504 99 90.301L105 92.701C105.197 91.702 105.497 91.051 105.9 90.751C106.298 90.451 106.598 89.804 106.8 88.801H107.7H108.9L109.5 87.301C110.897 88.501 111.848 89.303 112.35 89.701C112.847 90.104 113.597 91.304 114.6 93.301L117 92.701C117 92.303 117.098 92.002 117.3 91.801C117.497 91.604 117.6 91.304 117.6 90.901V90.601C117.998 90.803 118.298 91.304 118.5 92.101C118.697 92.101 118.847 92.002 118.95 91.801C119.049 91.604 119.199 91.501 119.4 91.501V91.801L118.5 93.901L119.4 96.001C119.597 95.401 120.197 94.801 121.2 94.201L119.4 102.301L120 104.401C118.997 106.604 118.2 108.854 117.6 111.151C117 113.453 116.4 115.801 115.8 118.201H116.1C116.897 115.604 117.698 113.054 118.5 110.551C119.297 108.053 120.197 105.601 121.2 103.201C120.999 103.004 120.797 102.901 120.6 102.901L121.5 102.001L121.2 103.201C122.199 103.801 122.799 104.954 123 106.651C123.197 108.353 123.3 109.703 123.3 110.701C123.3 115.304 122.897 119.654 122.1 123.751C121.298 127.853 120.9 132.203 120.9 136.801C120.9 139.004 120.999 141.053 121.2 142.951C121.397 144.854 121.5 146.902 121.5 149.101C121.5 151.904 122.499 154.553 124.5 157.051C126.497 159.554 127.5 162.301 127.5 165.301L129.3 174.001C129.9 177.202 130.35 180.353 130.65 183.451C130.95 186.554 131.297 189.704 131.7 192.901L132.3 196.201C132.3 196.402 132.399 196.702 132.6 197.1C132.797 197.503 132.9 197.902 132.9 198.3C132.9 199.303 132.698 200.002 132.3 200.401C132.3 202.604 132.549 204.704 133.05 206.701C133.547 208.702 133.899 210.803 134.1 213.001L136.8 203.101C136.997 202.304 137.1 201.203 137.1 199.801C137.1 198.202 136.898 196.454 136.5 194.551C136.097 192.653 135.9 190.702 135.9 188.701C135.9 185.902 136.397 181.951 137.4 176.85C138.399 171.75 139.65 166.154 141.15 160.05C142.65 153.952 144.3 147.6 146.1 141C147.9 134.4 149.648 128.25 151.35 122.55C153.047 116.85 154.598 111.9 156 107.7C157.397 103.5 158.399 100.701 158.999 99.3C159.397 98.302 159.899 97.252 160.499 96.15C161.101 95.053 161.7 94.003 162.3 93L166.8 87.3C168.999 84.502 171.347 81.9 173.851 79.5C176.349 77.1 178.8 74.503 181.201 71.7L182.701 70.5C184.097 70.102 185.447 69.352 186.75 68.25C188.049 67.153 189.498 66.403 191.102 66C187.698 68.602 184.149 71.653 180.452 75.15C176.749 78.651 174.001 82.303 172.202 86.1C175.001 83.901 177.348 81.501 179.251 78.9C181.149 76.303 183.798 74.002 187.202 72L182.702 77.1H183.001C184.001 76.101 184.952 75.253 185.853 74.55C186.751 73.852 187.699 73.102 188.703 72.3C188.9 72.502 189.199 72.6 189.603 72.6C190.001 72.6 191.05 71.901 192.751 70.5C194.448 69.103 196.099 67.903 197.702 66.9L199.802 66.3C198.4 67.5 196.999 68.602 195.603 69.6C194.201 70.603 193.099 71.901 192.302 73.5L195.603 71.7C195.798 71.901 195.902 72.201 195.902 72.6C195.902 73.003 195.4 73.8 194.402 75C193.4 76.2 192.199 77.55 190.802 79.05C189.4 80.55 187.999 82.102 186.603 83.7C185.201 85.303 184.099 86.7 183.302 87.9C182.298 89.503 181.249 91.05 180.152 92.55C179.05 94.05 178.002 95.602 177.002 97.2L176.104 99C176.502 99.802 176.704 100.401 176.704 100.8C178.901 98.602 180.852 96.352 182.554 94.05C184.251 91.753 186.103 89.503 188.105 87.3L187.503 88.8C186.702 89.602 186.003 90.45 185.403 91.35C184.803 92.25 184.503 93.202 184.503 94.2L170.105 121.8L169.503 123.9L169.804 123.6C170.802 121.8 171.95 120 173.253 118.2C174.552 116.4 175.7 114.703 176.704 113.1L180.003 108L181.204 107.1L181.503 106.8C181.7 106.8 181.804 106.852 181.804 106.95C181.804 107.053 181.902 107.1 182.105 107.1V108L181.503 109.2L160.503 199.2C160.101 201 159.702 202.65 159.304 204.15C158.902 205.65 158.704 207.201 158.704 208.799L159.903 207.599C160.301 208.401 160.503 208.903 160.503 209.099C160.302 209.502 160.204 209.999 160.204 210.599C160.204 211.401 160.401 212.052 160.804 212.549C161.202 213.051 161.404 213.702 161.404 214.499C161.404 214.902 161.353 215.249 161.254 215.549C161.152 215.849 161.106 216.2 161.106 216.599L159.305 222.299C158.903 223.7 158.705 225.252 158.705 226.949C158.705 228.65 158.652 230.248 158.555 231.748C158.451 233.248 158.153 234.5 157.655 235.498C157.154 236.502 156.103 236.998 154.505 236.998C154.903 238.199 155.105 239.098 155.105 239.699C155.105 240.101 155.053 240.551 154.955 241.049C154.852 241.551 154.805 242 154.805 242.399V245.399C154.205 245.999 153.802 246.299 153.605 246.299C153.005 246.299 152.503 245.998 152.105 245.399C151.702 244.799 151.303 244.2 150.905 243.598C149.302 244.602 148.505 246.403 148.505 248.998C148.505 250.4 148.603 251.398 148.805 251.998L144.605 251.398C144.605 251.998 144.703 252.5 144.905 252.898C145.102 253.3 145.205 253.902 145.205 254.699C144.005 253.498 143.302 252.402 143.105 251.398C142.303 252.597 141.905 253.3 141.905 253.498V254.699L141.605 254.998L141.305 255.299H140.705C140.705 255.5 140.855 255.748 141.155 256.049C141.455 256.348 141.605 256.699 141.605 257.098C141.005 256.498 140.302 256.2 139.505 256.2L139.205 256.8C140.002 256.8 140.804 257.202 141.605 257.999C141.403 257.999 141.253 257.952 141.155 257.849C141.052 257.751 140.902 257.701 140.705 257.701L139.505 257.099C139.702 257.302 139.805 257.601 139.805 257.999L140.405 259.2C140.203 259.401 139.904 259.499 139.505 259.499C138.703 259.499 138.005 259.05 137.405 258.149C136.805 257.248 136.303 256.499 135.905 255.899H135.005C134.602 255.102 134.353 254.45 134.255 253.95C134.152 253.452 133.805 253.003 133.205 252.598L131.405 253.799C131.405 254.399 131.353 255.051 131.255 255.748C131.152 256.451 131.105 257.098 131.105 257.699C131.105 258.5 131.152 259.199 131.255 259.799C131.353 260.399 131.405 260.998 131.405 261.598C130.805 260.797 130.505 259.897 130.505 258.899C130.505 257.901 130.402 256.903 130.205 255.899C129.802 256.499 129.554 257.202 129.455 257.999C129.352 258.802 129.202 259.599 129.005 260.399H128.705L129.905 252.598L128.405 250.498L127.205 253.799L126.905 245.998C126.905 245.398 126.605 244.799 126.005 244.199C126.005 244.002 126.103 243.801 126.305 243.597C126.305 243.402 126.404 243.199 126.605 242.997L126.905 244.497L128.105 239.698C127.702 239.3 127.505 238.798 127.505 238.198V237.897C127.505 237.1 127.805 236.096 128.405 234.897V232.797C128.203 232.6 128.002 232.496 127.805 232.496L126.905 236.396L126.305 234.595C125.902 234.595 125.602 234.548 125.405 234.447C125.203 234.347 124.904 234.297 124.505 234.297C124.702 235.496 124.903 236.651 125.105 237.746C125.302 238.848 125.602 239.898 126.005 240.896L125.405 243.296L124.505 242.095C124.505 242.697 124.805 243.296 125.405 243.896C124.402 243.699 123.853 243.4 123.755 242.996C123.652 242.598 123.403 241.797 123.005 240.596C123.005 240.198 123.052 239.996 123.155 239.996C123.254 239.996 123.305 239.799 123.305 239.396C121.702 235 120.202 230.546 118.805 226.046C117.404 221.546 116.302 216.999 115.505 212.397C115.505 211.999 115.402 211.647 115.205 211.346C115.004 211.046 114.802 210.7 114.605 210.296L114.305 210.897C115.102 214.098 115.505 217.299 115.505 220.497C115.505 223.698 116.105 226.698 117.305 229.496L117.605 231.596C117.605 232.6 117.605 233.149 117.605 233.246C117.605 233.35 117.501 233.396 117.305 233.396C116.705 233.396 116.002 232.298 115.205 230.095C114.404 227.898 113.602 225.296 112.805 222.296C112.004 219.296 111.254 216.296 110.555 213.296C109.852 210.296 109.402 207.999 109.205 206.397L105.905 190.197L104.705 198.897C103.702 202.9 102.952 205.999 102.455 208.197C101.954 210.4 101.602 212.2 101.405 213.596C101.203 214.998 101.053 216.348 100.955 217.647C100.852 218.95 100.702 220.698 100.505 222.897L99.605 232.796C99.605 234.999 99.501 237.296 99.305 239.696C99.103 242.094 98.804 244.397 98.405 246.594L97.505 251.094C97.102 253.096 96.802 255.295 96.605 257.696C96.403 260.094 96.305 262.495 96.305 264.895C96.305 266.094 96.352 267.295 96.455 268.495C96.554 269.696 96.605 270.792 96.605 271.796C96.605 273.192 96.403 274.843 96.005 276.745C95.602 278.643 95.302 279.993 95.105 280.796C94.303 276.993 93.905 272.892 93.905 268.495C93.905 265.093 94.004 261.845 94.205 258.745C94.402 255.647 94.505 252.798 94.505 250.196H94.205C93.202 254.198 92.804 258.346 93.005 262.645C93.202 266.944 93.005 271.391 92.405 275.995L91.805 268.495C91.805 269.493 91.702 270.446 91.505 271.345C91.303 272.245 91.205 273.193 91.205 274.197C91.205 274.595 91.252 274.994 91.355 275.396C91.453 275.794 91.505 276.193 91.505 276.595C90.703 276.792 90.305 277.093 90.305 277.495C90.305 278.095 90.404 278.696 90.605 279.296C90.605 280.692 90.802 281.593 91.205 281.995L90.605 281.696L90.305 281.995C90.103 281.995 89.902 281.696 89.705 281.095C89.504 280.495 89.302 279.896 89.105 279.296V280.796L88.505 279.595L88.205 280.796C87.005 280.796 86.302 279.792 86.105 277.796C85.903 275.794 85.702 274.093 85.505 272.696L84.905 270.895C84.502 269.891 84.103 268.391 83.705 266.395L81.905 261.295V262.795C81.703 262.195 81.605 261.492 81.605 260.695L81.005 258.894C81.005 260.492 81.155 261.79 81.455 262.794C81.755 263.792 82.205 264.991 82.805 266.394V267.894C84.005 271.091 84.905 274.494 85.505 278.093L82.805 272.093L82.505 272.394C82.903 273.593 83.302 274.742 83.705 275.843C84.103 276.941 84.502 278.093 84.905 279.294L84.305 280.493V280.794C84.305 280.991 84.404 281.192 84.605 281.394L85.505 282.593C85.505 282.79 85.552 282.941 85.655 283.044C85.754 283.142 85.805 283.292 85.805 283.493L82.805 281.694C80.602 280.891 78.905 278.942 77.705 275.842C76.505 272.74 75.404 270.092 74.405 267.893L73.805 265.493C73.004 263.694 72.352 261.893 71.855 260.093C71.353 258.294 70.903 256.493 70.505 254.695L69.605 252.894L68.105 251.994C68.503 254.994 68.953 257.746 69.455 260.244C69.952 262.742 70.603 265.39 71.405 268.195C71.002 268.195 70.505 267.392 69.905 265.795C69.305 264.191 68.705 263.094 68.105 262.494L67.805 260.695C65.804 255.097 64.154 249.398 62.855 243.593C61.552 237.796 60.403 231.997 59.405 226.195C59.405 225.398 59.203 224.596 58.805 223.795L58.505 224.095C58.903 226.899 59.152 229.645 59.255 232.344C59.353 235.045 59.602 237.797 60.005 240.594L60.905 246.295C60.905 246.895 60.952 247.494 61.055 248.094C61.154 248.696 61.205 249.399 61.205 250.196C61.205 250.598 61.102 250.796 60.905 250.796C60.305 250.599 59.602 249.196 58.805 246.595C58.004 243.999 57.254 240.947 56.555 237.447C55.852 233.949 55.205 230.396 54.605 226.797C54.005 223.197 53.602 220.399 53.405 218.398L45.005 160.797C44.602 158.8 44.452 156.85 44.555 154.947C44.654 153.049 44.504 151.098 44.105 149.097L43.205 150.897C42.404 149.299 41.654 147.799 40.955 146.397C40.252 145 39.802 143.8 39.605 142.797C39.605 142.999 39.652 143.097 39.755 143.097C39.853 143.097 39.905 143.2 39.905 143.397C39.703 143.599 39.404 143.697 39.005 143.697C38.203 143.697 37.603 142.9 37.205 141.297C36.796 139.703 36.6 138.602 36.6 138.002ZM57.299 234.001H57.599C57.599 230.401 57.397 226.755 56.999 223.052C56.596 219.354 56.197 215.505 55.799 211.502L55.499 208.802C55.096 206.205 54.749 203.403 54.449 200.403C54.149 197.403 53.849 194.506 53.549 191.703C53.249 188.904 52.898 186.303 52.499 183.903C52.096 181.503 51.496 179.506 50.699 177.903C49.898 176.703 49.499 175.704 49.499 174.903C49.499 174.106 49.748 173.356 50.249 172.653C50.746 171.954 50.999 171.106 50.999 170.103C50.999 167.506 50.699 164.206 50.099 160.203C49.499 156.204 48.599 152.806 47.399 150.003C48.196 149.403 48.599 148.906 48.599 148.503C48.599 147.706 48.495 147.003 48.299 146.403C47.296 147.805 46.748 148.606 46.649 148.803C46.546 149.005 46.499 150.106 46.499 152.103C46.499 153.504 46.546 155.103 46.649 156.903C46.748 158.703 47.197 160.105 47.999 161.103C47.999 161.305 47.947 161.506 47.849 161.703C47.745 161.904 47.699 162.106 47.699 162.303C47.699 165.106 47.948 167.806 48.449 170.403C48.946 173.005 49.199 175.404 49.199 177.603L49.799 182.404C50.798 190.204 51.749 197.905 52.649 205.504C53.549 213.108 54.796 220.705 56.399 228.304L57.299 234.001ZM69 106.502C68.597 107.903 68.348 109.202 68.25 110.402C68.147 111.602 67.997 112.905 67.8 114.302V116.402L68.4 116.702L69.9 106.202C69.698 106.005 69.399 105.902 69 105.902C68.798 105.902 68.7 106.005 68.7 106.202L69 106.502ZM72.299 99.002L69.899 102.002L71.099 98.102L72.299 99.002ZM69.9 106.202C70.899 106.403 71.447 106.605 71.55 106.802C71.649 107.004 71.897 107.702 72.3 108.902L71.4 113.102C70.997 112.305 70.847 111.105 70.95 109.502C71.048 107.903 70.696 106.801 69.9 106.202ZM73.199 144.902C72.796 144.705 72.196 144.602 71.399 144.602C71.399 144.405 71.498 144.105 71.699 143.702C71.896 143.304 72.097 143.102 72.299 143.102L72.899 144.302L73.199 144.902ZM72 270.001C71.798 270.001 71.7 269.702 71.7 269.101C71.7 268.9 71.597 268.601 71.4 268.203L72 270.001ZM78 220.202L78.3 220.502C79.5 218.304 80.348 215.102 80.85 210.902C81.347 206.702 81.797 203.101 82.2 200.101C82.598 197.702 82.997 195.053 83.4 192.152C83.798 189.255 84.197 186.554 84.6 184.051C84.998 181.553 85.298 179.355 85.5 177.451C85.697 175.553 85.8 174.301 85.8 173.701C85.8 172.702 85.65 171.652 85.35 170.551C85.05 169.454 84.9 168.503 84.9 167.701C84.9 167.504 85.05 166.801 85.35 165.601C85.65 164.401 85.996 163.102 86.4 161.701C86.798 160.304 87.197 158.902 87.6 157.501C87.998 156.104 88.298 154.904 88.5 153.901H87.3V152.701C87.698 152.701 88.097 152.804 88.5 153.001C88.5 152.401 88.547 151.853 88.65 151.351C88.749 150.854 88.8 150.301 88.8 149.701C88.8 148.501 88.598 146.902 88.2 144.901C89.4 144.301 90 143.804 90 143.401C90 143.204 89.948 143.003 89.85 142.801C89.746 142.604 89.7 142.304 89.7 141.901C88.5 142.904 87.6 144.503 87 146.701C86.4 148.904 86.1 150.901 86.1 152.701C86.1 153.502 86.198 154.102 86.4 154.501L85.5 155.701C85.097 157.702 84.647 160.553 84.15 164.251C83.649 167.954 83.4 171.001 83.4 173.401L82.5 180.901C81.098 192.104 79.898 203.401 78.9 214.8L78 220.202ZM78.9 230.1C79.097 233.1 79.697 236.303 80.7 239.702C80.7 230.903 81.3 222.302 82.5 213.902V211.502L82.2 211.802C81.6 214.802 80.85 217.755 79.95 220.653C79.05 223.554 78.6 226.503 78.6 229.502C78.796 229.702 78.9 229.905 78.9 230.1ZM80.1 128.402L81.9 127.802C81.9 128.805 81.548 129.452 80.85 129.752C80.147 130.052 79.8 130.403 79.8 130.802L80.1 128.402ZM79.799 132.002C80.999 133.605 81.697 135.405 81.899 137.402C80.699 137.402 80.047 136.905 79.949 135.902C79.846 134.903 79.799 133.605 79.799 132.002ZM83.4 254.702C83.597 257.702 84.197 260.897 85.2 264.302C84.999 263.101 84.9 261.902 84.9 260.702C84.9 259.501 84.9 258.405 84.9 257.401C84.9 257.204 84.947 256.651 85.05 255.751C85.149 254.851 85.2 253.905 85.2 252.901C85.2 251.903 85.2 251.003 85.2 250.202C85.2 249.405 85.2 248.804 85.2 248.401L85.5 240.6L84 239.702C83.597 241.102 83.25 242.602 82.95 244.202C82.65 245.804 82.5 247.304 82.5 248.702C82.898 249.704 83.1 250.702 83.1 251.702C83.1 252.704 83.198 253.702 83.4 254.702ZM85.799 284.1L86.099 284.401L85.799 284.702L85.499 284.401C85.096 283.999 84.899 283.698 84.899 283.501L85.799 284.1ZM86.1 283.501H85.8L86.4 283.802L86.1 283.501ZM113.699 219.601H113.999L113.699 217.801C113.099 211.605 112.246 205.403 111.149 199.201C110.047 193.004 109.297 186.803 108.899 180.6L107.699 176.701L107.999 177.901L106.799 186.001L109.499 200.101C109.897 202.501 110.347 204.902 110.849 207.301C111.346 209.701 111.899 212.101 112.499 214.501L113.699 219.601ZM117.299 90.602H117.599V90.302L117.299 90.602ZM118.799 105.902C118.597 105.902 118.499 105.705 118.499 105.302L118.199 106.202L118.799 105.902ZM119.699 92.102V91.802L119.399 92.102H119.699ZM120.299 104.702L120.599 102.902L120.299 102.602V103.502L119.999 104.402L120.299 104.702ZM120.9 104.402L120.3 106.802L120.9 107.702L121.5 106.802V105.302C121.5 104.304 121.397 103.605 121.2 103.202C121.2 103.403 121.149 103.605 121.05 103.802C120.946 104.003 120.9 104.205 120.9 104.402ZM122.4 253.801C122.798 252.803 123.15 251.953 123.45 251.25C123.75 250.553 124.097 249.9 124.5 249.301C124.097 250.303 123.9 251.25 123.9 252.151C123.9 253.052 123.797 254.003 123.6 255.001L122.4 253.801ZM125.699 96.301C124.499 96.704 123.496 97.403 122.699 98.401C123.097 97.004 123.698 95.902 124.499 95.101C124.897 95.303 125.146 95.504 125.249 95.701C125.348 95.903 125.498 96.105 125.699 96.301ZM125.1 113.102L124.5 112.802C124.097 112.802 123.9 113.004 123.9 113.402L123.3 120.002C123.3 120.204 123.249 120.302 123.15 120.302C123.047 120.302 123 120.406 123 120.602C123 120.804 123.047 121.005 123.15 121.202C123.249 121.403 123.3 121.605 123.3 121.802H123.6C123.797 120.406 123.998 119.004 124.2 117.602C124.397 116.205 124.696 114.705 125.1 113.102ZM125.1 113.102C126.098 113.102 126.647 113.205 126.75 113.402C126.848 113.604 127.097 114.204 127.5 115.202L126.9 119.102C125.897 118.103 125.597 116.955 126 115.652C126.398 114.353 126.098 113.505 125.1 113.102ZM127.5 106.801L125.4 109.501L126.6 105.901L127.5 106.801ZM125.4 243.901L125.7 244.501C125.897 244.501 126 244.403 126 244.202L125.4 243.302V243.901ZM126.9 236.401C126.698 237.202 126.497 237.952 126.3 238.651C126.098 239.354 126 240.104 126 240.901C126 241.102 126.197 241.801 126.6 243.001C126.6 242.204 126.698 241.454 126.9 240.751C127.097 240.054 127.298 239.204 127.5 238.202V237.901L126.9 236.401ZM160.499 184.502C160.499 186.705 159.601 189.452 157.8 192.752C156 196.052 155.1 199.905 155.1 204.302C155.1 205.502 155.198 206.403 155.4 207.002C154.598 207.405 154.149 207.705 154.05 207.902C153.947 208.103 153.9 208.703 153.9 209.702C156.698 208.305 158.101 205.103 158.101 200.101C158.101 199.304 157.997 198.705 157.8 198.301L158.7 197.402C159.098 195.203 159.497 193.202 159.899 191.402C160.297 189.601 160.897 187.605 161.7 185.402L162.899 181.801C163.696 179.402 164.399 176.355 164.999 172.652C165.601 168.953 166.2 165.105 166.8 161.102C167.4 157.103 167.948 153.002 168.45 148.802C168.946 144.602 169.499 140.702 170.1 137.102C168.098 145.704 166.448 152.805 165.149 158.402C163.846 164.004 162.848 168.452 162.149 171.752C161.446 175.052 160.95 177.504 160.649 179.102C160.35 180.706 160.2 181.906 160.2 182.703C160.2 183.705 160.297 184.304 160.499 184.502ZM163.799 219.601C162.397 218.003 161.699 216.203 161.699 214.202C162.898 214.202 163.545 214.853 163.648 216.152C163.749 217.455 163.799 218.603 163.799 219.601ZM161.7 223.202C161.7 222.405 161.948 221.805 162.45 221.402C162.946 221.004 163.397 220.502 163.8 219.902L163.499 222.902L161.7 223.202ZM175.499 118.502V118.202L174.601 119.402L173.701 122.402L175.499 118.502Z" fill="black"/>
</svg>
