<svg width="335" height="266" viewBox="0 0 335 266" fill="none" xmlns="http://www.w3.org/2000/svg">
<path d="M212.301 260.603C222.899 255.4 232.852 249.9 242.151 244.103C251.452 238.298 259.899 232.501 267.501 226.703C263.901 228.502 260.55 230.453 257.452 232.553C254.348 234.653 251.1 236.701 247.702 238.703L246.202 239.902C242.399 242.101 238.649 244.201 234.952 246.203C231.249 248.199 227.399 250.103 223.401 251.902C227.797 249.3 232.501 246.4 237.501 243.203C237.3 243.203 237.202 243.099 237.202 242.902C236.198 243.502 234.952 244.351 233.452 245.453C231.952 246.549 230.348 247.599 228.651 248.603C226.95 249.601 225.352 250.449 223.852 251.152C222.352 251.851 221 252.203 219.801 252.203C219 252.203 217.799 252.601 216.201 253.402C214.601 254.199 212.803 255.099 210.801 256.103C208.805 257.101 206.854 258.001 204.951 258.802C203.053 259.599 201.402 260.001 200 260.001C202.602 259.2 205.303 258.052 208.102 256.552C210.905 255.052 213.305 253.402 215.301 251.603L208.701 254.603C208.504 254.603 208.4 254.4 208.4 254.001C208.4 253.401 209.802 252.149 212.601 250.251C215.404 248.349 218.648 246.249 222.351 243.952C226.048 241.649 229.898 239.302 233.9 236.901C237.898 234.501 241.101 232.501 243.5 230.901L275.9 208.401L276.5 206.301C270.697 209.703 264.898 213.252 259.102 216.951C253.297 220.648 247.5 224.197 241.702 227.601C243.3 225.997 245.7 224.3 248.901 222.499C252.098 220.7 254.797 218.702 257.001 216.499C257.399 215.702 258.3 214.901 259.702 214.101C268.702 207.904 277.401 201.499 285.802 194.9C294.203 188.301 301.702 181.101 308.302 173.3L309.802 170.602L309.202 170.901C306.999 174.101 303.751 177.402 299.452 180.8C295.149 184.202 291.399 187.101 288.202 189.499L281.602 194.601C280.799 195.003 279.952 195.65 279.051 196.55C278.15 197.45 277.199 197.9 276.201 197.9C275.797 197.9 275.601 197.703 275.601 197.3C275.601 196.902 275.947 196.4 276.65 195.8C277.349 195.2 277.898 194.802 278.3 194.601L283.4 190.4C287.601 187.002 291.998 183.101 296.601 178.701C301.199 174.305 304.898 169.702 307.701 164.901L308.9 162.501C308.9 162.103 308.947 161.653 309.05 161.151C309.148 160.655 309.2 160.204 309.2 159.801C309.2 158.601 308.3 157.401 306.499 156.201C304.7 155 302.698 153.904 300.499 152.9C298.296 151.902 296.196 151.1 294.2 150.5C292.198 149.9 291.096 149.601 290.899 149.601C283.1 147.403 275.196 145.655 267.2 144.351C259.198 143.053 251.397 140.901 243.8 137.901L239.9 136.401C236.498 135.202 233.197 133.303 230 130.702C226.799 128.104 223.898 124.204 221.301 119.001C221.498 119.804 221.649 120.853 221.75 122.151C221.85 123.454 222.098 124.303 222.5 124.702L221.9 124.101C220.101 121.303 218.796 118.354 218 115.25C217.203 112.152 216.801 109.203 216.801 106.4C216.801 104.6 217.153 102.702 217.852 100.701C218.549 98.703 219.202 97.002 219.801 95.6L221.901 92.3C223.899 89.3 226.448 85.902 229.551 82.1C232.649 78.303 235.799 74.802 239 71.6C242.197 68.403 245.25 65.652 248.15 63.35C251.046 61.053 253.199 59.9 254.601 59.9C255.201 59.9 255.749 60.004 256.249 60.2C256.747 60.402 257.196 60.603 257.601 60.8C258.599 59.403 260.046 58.001 261.951 56.6C263.849 55.203 265.799 53.952 267.801 52.85C269.797 51.753 271.701 50.853 273.5 50.15C275.301 49.452 276.6 49.1 277.4 49.1C278.601 49.1 279.201 49.302 279.201 49.7C279.201 50.3 278.699 51.05 277.701 51.95C276.697 52.85 275.9 53.6 275.301 54.2C279.299 54.003 283.35 53.15 287.451 51.65C291.547 50.15 295.297 48.603 298.701 47L300.5 53.3C303.898 52.301 307.102 51.8 310.102 51.8C310.899 51.8 311.549 52.001 312.051 52.4C312.547 52.803 313.102 53 313.701 53C314.3 53 314.9 52.953 315.5 52.85C316.102 52.751 316.799 52.601 317.602 52.4C317.198 53 316.852 53.6 316.551 54.2C316.25 54.8 316.102 55.503 316.102 56.3C316.102 56.9 316.297 57.402 316.702 57.8C315.501 58.203 314.452 58.601 313.552 59C312.652 59.403 311.7 60.102 310.702 61.1L314.602 62C315.801 61.602 317 61.4 318.202 61.4C319.401 61.4 320.602 61.203 321.802 60.8L326.001 59.6C325.599 60.2 324.548 60.753 322.853 61.25C321.15 61.751 319.8 62.202 318.802 62.6C320.198 62.403 321.601 62.3 323.001 62.3C324.399 62.3 325.401 62.3 326.001 62.3V62.6C323.798 62.6 321.548 62.802 319.251 63.2C316.95 63.603 314.901 64.001 313.103 64.4L309.802 66.8C311.001 66.8 312.202 66.753 313.402 66.65C314.603 66.552 315.9 66.5 317.302 66.5C310.298 68.3 303.099 70.4 295.702 72.8C288.3 75.2 281.198 78.153 274.401 81.65C267.6 85.152 261.399 89.202 255.801 93.8C250.199 98.404 245.901 103.803 242.901 109.999C244.501 109.999 246.098 110.201 247.702 110.6C249.3 111.003 250.899 111.303 252.501 111.499H252.802C256.8 111.903 260.7 112.7 264.501 113.899C268.298 115.099 272.198 115.999 276.202 116.599H276.802C281.001 117.602 285.3 118.653 289.702 119.748C294.098 120.85 298.448 122.2 302.751 123.799C307.05 125.403 311.198 127.301 315.202 129.498C319.2 131.701 322.8 134.402 326.001 137.599L328.702 140.599C330.899 142.998 332.399 145.7 333.202 148.7C333.999 151.7 334.401 154.7 334.401 157.7V159.8C334.401 165.602 333.098 171.05 330.501 176.148C327.899 181.248 324.698 185.951 320.901 190.248C317.1 194.553 313.102 198.4 308.901 201.799C304.702 205.201 300.999 208.201 297.801 210.799C288.201 218.6 277.799 225.545 266.602 231.649C255.399 237.749 244.899 243.997 235.102 250.399C234.098 250.999 232.702 251.795 230.901 252.799C229.102 253.797 227.151 254.795 225.051 255.799C222.951 256.797 220.748 257.748 218.451 258.649C216.154 259.55 214.102 260.199 212.301 260.603ZM220.102 91.104C219.899 91.704 219.6 92.707 219.202 94.104C218.798 95.505 218.399 96.908 218.001 98.304C217.603 99.705 217.204 100.956 216.802 102.054C216.404 103.156 216.103 103.704 215.902 103.704C215.504 103.704 215.302 103.306 215.302 102.503C215.302 100.905 215.902 98.505 217.103 95.304C218.302 92.107 219.3 90.105 220.103 89.304V91.104H220.102ZM220.102 89.004L223.401 83.304C224.001 83.304 224.499 83.257 224.901 83.154C225.299 83.056 225.698 83.004 226.102 83.004C225.5 84.406 224.549 85.456 223.25 86.154C221.948 86.857 220.899 87.804 220.102 89.004ZM297.801 179.303V179.604L300.5 177.502C302.9 175.305 305.549 172.554 308.451 169.253C311.347 165.954 312.801 162.607 312.801 159.205C312.801 158.206 312.697 157.508 312.5 157.104L311.602 155.604C309.202 152.806 306.051 150.457 302.151 148.554C298.251 146.656 294.299 145.156 290.301 144.054C286.297 142.956 282.547 142.156 279.051 141.654C275.549 141.158 272.901 140.806 271.102 140.604H268.102C265.297 140.604 262.748 140.003 260.452 138.804C258.149 137.604 255.501 136.507 252.501 135.503L245.302 133.104C241.103 131.707 237.501 129.855 234.501 127.554C231.501 125.257 228.399 122.604 225.202 119.604C225.202 117.205 225.149 115.658 225.052 114.955C224.948 114.256 224.7 112.906 224.302 110.904C223.702 112.705 223.402 114.205 223.402 115.404C223.402 118.605 224.453 121.404 226.552 123.804C228.651 126.204 231.001 128.257 233.603 129.954C236.199 131.655 238.65 133.005 240.953 134.003C243.25 135.007 244.502 135.607 244.703 135.804C248.101 136.807 251.799 137.806 255.803 138.804C259.801 139.807 263.604 140.806 267.203 141.804L274.703 143.904C278.303 144.706 282.25 145.605 286.553 146.604C290.852 147.607 294.803 148.755 298.403 150.054C302.003 151.357 305.003 152.806 307.403 154.404C309.803 156.008 311.003 157.807 311.003 159.804C311.003 162.007 310.253 164.107 308.753 166.104C307.253 168.104 305.702 170.303 304.105 172.704L297.801 179.303ZM296.001 74.004C293.001 75.007 290.001 75.954 287.001 76.854C284.001 77.754 281.101 79.005 278.302 80.604L275.001 82.404C275.198 82.606 275.302 82.807 275.302 83.004C278.7 81.204 282.3 79.606 286.103 78.204C289.9 76.807 293.701 75.607 297.501 74.604V74.904C297.899 74.506 298.103 74.206 298.103 74.004C298.103 73.807 297.9 73.704 297.501 73.704C297.3 73.704 297.052 73.755 296.751 73.854C296.452 73.957 296.198 74.004 296.001 74.004ZM292.401 79.404C290.797 80.004 289.149 80.557 287.452 81.054C285.751 81.555 284.1 82.207 282.501 83.004C283.702 81.804 285.001 80.904 286.401 80.304C287.797 79.704 289.149 79.156 290.452 78.654C291.751 78.157 293.048 77.656 294.352 77.154C295.649 76.657 296.7 75.907 297.5 74.904C297.5 76.306 297 77.206 296 77.604C294.999 78.007 293.797 78.607 292.401 79.404ZM319.102 71.004C317.301 71.004 315.5 71.004 313.702 71.004C311.901 71.004 310.2 71.107 308.602 71.304C312.801 70.507 317 69.907 321.202 69.504L319.102 71.004Z" fill="black"/>
<path d="M142.001 261.197C141.8 259.593 141.649 257.945 141.551 256.248C141.448 254.547 141.402 252.797 141.402 250.998C141.402 250.195 141.449 249.445 141.551 248.748C141.65 248.045 141.701 247.295 141.701 246.498L142.301 232.398C141.102 235.998 140.501 239.695 140.501 243.498C140.501 247.295 140 251.195 139.001 255.197C138.8 253.998 138.701 252.797 138.701 251.597C138.701 250.397 138.701 249.197 138.701 247.997C138.298 247.997 138.101 248.546 138.101 249.647C138.101 250.743 137.997 251.493 137.8 251.897V256.096C137.2 256.494 136.901 256.795 136.901 256.996C136.901 258.392 137 259.846 137.201 261.346C137.398 262.846 137.501 264.092 137.501 265.096C137.501 265.494 137.449 265.696 137.352 265.696C137.248 265.696 137.202 265.796 137.202 265.997C136.602 264.993 136.251 263.747 136.152 262.247C136.048 260.747 135.598 259.194 134.801 257.597C134.6 257.794 134.501 258.394 134.501 259.398C134.501 260.396 134.398 260.898 134.201 260.898C133.601 260.898 133.099 259.998 132.701 258.197C132.298 256.398 131.998 254.195 131.801 251.597C131.6 248.995 131.501 246.394 131.501 243.796C131.501 241.194 131.501 239.095 131.501 237.497C131.501 234.296 131.75 231.145 132.251 228.046C132.748 224.944 133.001 221.898 133.001 218.898L131.501 217.097C129.701 225.093 128.501 233.296 127.901 241.697C127.699 241.097 127.549 240.545 127.451 240.047C127.347 239.547 127.301 238.998 127.301 238.399C127.301 237.596 127.348 236.846 127.451 236.149C127.55 235.446 127.601 234.696 127.601 233.899C127.601 233.297 127.601 232.647 127.601 231.948C127.601 231.245 127.399 230.598 127 229.999C127.398 220.399 128.397 211.099 130 202.099C131.599 193.099 133.3 184.099 135.101 175.099C134.899 175.099 134.449 176.103 133.75 178.099C133.047 180.101 132.297 182.351 131.5 184.849C130.698 187.353 129.948 189.851 129.25 192.349C128.547 194.853 128.097 196.601 127.9 197.599C127.299 200.599 126.85 203.65 126.549 206.749C126.249 209.853 125.701 211.399 124.9 211.399C124.299 211.399 124 210.797 124 209.598C124 209.2 124.052 208.848 124.15 208.547C124.253 208.248 124.299 207.901 124.299 207.498C125.303 199.697 126.549 191.949 128.049 184.248C129.549 176.551 131.096 168.798 132.699 160.999L128.799 162.798C128.799 162.602 128.748 162.349 128.65 162.048C128.546 161.749 128.5 161.402 128.5 160.999C129.499 160.999 130.3 160.952 130.9 160.849C131.5 160.75 132.1 160.699 132.7 160.699C135.7 146.899 138.799 133.099 142 119.299C145.197 105.5 148.797 91.699 152.8 77.9L150.7 79.7V77L151.3 74.9C151.3 73.901 151.197 73.1 151 72.5C150.799 71.9 150.7 71.202 150.7 70.4C150.897 67.002 151.9 63.852 153.7 60.95C155.5 58.054 156.499 55.002 156.7 51.8C156.897 49.602 157.197 47.352 157.6 45.05C157.998 42.753 158.898 41.6 160.299 41.6C161.499 41.6 162.399 41.703 162.999 41.9C162.597 41.103 162.399 40.503 162.399 40.1C162.399 39.5 162.647 38.103 163.149 35.9C163.647 33.702 164.397 32.6 165.399 32.6C165.999 32.6 166.497 32.952 166.899 33.65C167.297 34.353 167.696 35.103 168.1 35.9C169.698 35.502 170.696 34.7 171.1 33.5C171.498 32.3 171.7 30.903 171.7 29.3L177.7 32C178.098 31.602 178.6 31.203 179.2 30.8C179.8 30.402 180.198 30.2 180.399 30.2C180.596 30.2 180.747 30.252 180.85 30.35C180.948 30.453 181.098 30.5 181.299 30.5H181.6C181.795 30.5 182.096 30.2 182.498 29.6C183.498 30.2 184.496 30.851 185.498 31.55C186.498 32.253 187.496 32.6 188.498 32.6H189.699L190.599 34.7C190.599 34.302 190.697 34.054 190.898 33.95C191.095 33.852 191.296 33.603 191.498 33.2C191.498 32.802 191.447 32.554 191.35 32.45C191.246 32.352 191.2 32.202 191.2 32L191.499 31.7C191.897 32.103 192.048 32.554 191.95 33.05C191.846 33.551 191.997 34.1 192.399 34.7L193.6 33.2C193.6 31.804 193.496 30.552 193.299 29.45C193.098 28.353 192.998 27.2 192.998 26C193.6 26.6 193.998 27.5 194.199 28.7C194.396 29.9 194.695 31.002 195.099 32L195.398 26.6C195.796 26.6 195.998 27.603 195.998 29.6C195.998 30.603 195.947 31.751 195.85 33.05C195.746 34.353 195.7 35.202 195.7 35.6L197.2 37.4L198.399 33.8C198.596 34.803 198.747 35.652 198.85 36.35C198.948 37.053 199.397 37.803 200.2 38.6C199.796 39.003 199.497 39.2 199.3 39.2H199.601V46.7L199.3 52.4C199.099 54.8 198.999 57.2 198.999 59.6C198.999 62 198.999 64.4 198.999 66.8C198.999 70.803 199.046 74.703 199.149 78.5C199.249 82.301 199.397 86.202 199.6 90.2C199.795 93.402 200.799 96.501 202.6 99.501C204.399 102.501 205.698 106.002 206.498 110.001C207.498 115.804 207.998 121.302 207.998 126.501C207.998 131.704 208.795 137.001 210.398 142.4C210.595 143.6 210.849 144.852 211.148 146.15C211.449 147.454 211.599 148.602 211.599 149.6C211.599 150.401 211.449 151.001 211.148 151.4C210.849 151.803 210.699 152.502 210.699 153.501C210.699 160.503 211.847 167.252 214.148 173.75C216.445 180.252 217.998 186.4 218.798 192.199C218.995 194.599 219.444 196.803 220.148 198.799C220.847 200.801 221.544 202.803 222.248 204.799C222.947 206.801 223.646 209.051 224.35 211.549C225.047 214.049 225.596 216.996 225.998 220.401C223.998 216.397 222.348 212.399 221.049 208.401C219.746 204.401 218.096 200.6 216.1 197.001C216.295 200.202 217.045 203.353 218.35 206.45C219.647 209.554 220.698 212.6 221.498 215.6L218.498 210.2C218.297 210.2 218.199 210.3 218.199 210.501L220.599 216.8C220.195 217.198 219.997 217.7 219.997 218.3C219.997 218.902 220.645 220.349 221.948 222.652C223.247 224.949 223.897 226.597 223.897 227.601C222.895 226.402 222.098 225.05 221.497 223.55C220.897 222.05 219.895 220.8 218.497 219.8L219.397 223.402L218.797 223.701C217.193 223.701 215.693 222.201 214.297 219.201C212.895 216.201 211.494 212.752 210.098 208.851C208.696 204.951 207.346 201.201 206.047 197.601C204.744 194.001 203.496 191.601 202.297 190.402C202.695 193.603 203.295 196.754 204.098 199.851C204.895 202.955 205.793 206.105 206.797 209.3C203.596 202.101 200.947 195.853 198.848 190.55C196.746 185.253 195.098 179.3 193.897 172.7L192.098 173.3C192.496 175.7 193.043 178.302 193.746 181.101C194.445 183.904 194.797 186.402 194.797 188.601C194.797 189.201 194.496 189.501 193.897 189.501C193.495 189.501 193.043 188.901 192.547 187.7C192.045 186.501 191.596 185.104 191.197 183.501C190.793 181.901 190.394 180.253 189.996 178.55C189.594 176.855 189.293 175.402 189.098 174.2C186.098 175.204 182.994 176.253 179.797 177.35C176.596 178.452 173.395 179.299 170.197 179.901L168.996 180.2L170.197 181.401C170.197 182.202 170.047 182.651 169.746 182.751C169.447 182.855 169.297 183.103 169.297 183.501V184.101C169.297 184.902 168.996 185.404 168.397 185.601C167.797 185.601 167.245 185.554 166.747 185.451C166.247 185.353 165.796 185.301 165.397 185.301C164.995 185.301 164.446 185.803 163.747 186.801C163.044 187.805 162.497 188.301 162.099 188.301C161.695 188.301 161.199 187.805 160.599 186.801C159.998 185.803 159.497 185.106 159.099 184.701C159.099 185.705 158.949 186.201 158.649 186.201C158.349 186.201 157.899 186.703 157.298 187.701C156.099 186.502 155.396 185.301 155.198 184.101C153.196 193.902 150.895 204.304 148.298 215.3C145.696 226.298 144.196 237.097 143.798 247.7V251.6C143.798 251.998 143.597 253.448 143.198 255.95C142.798 258.445 142.399 260.195 142.001 261.197ZM133.602 172.399C133.4 172.599 133.199 172.697 133.001 172.697C133.001 171.7 133.151 170.95 133.451 170.448C133.751 169.952 134 169.399 134.201 168.798C133.198 169.4 132.401 170.552 131.801 172.249C131.201 173.949 130.699 175.75 130.301 177.648C129.899 179.55 129.551 181.449 129.251 183.347C128.951 185.249 128.698 186.699 128.501 187.697C128.698 187.898 128.801 188.101 128.801 188.297C129.8 185.899 130.649 183.301 131.352 180.498C132.05 177.699 132.8 175 133.602 172.399ZM135.401 165.499V164.599C134 165.001 133.25 165.55 133.151 166.249C133.047 166.952 132.898 167.8 132.701 168.798C132.898 168.4 133.301 167.95 133.901 167.448C134.501 166.952 134.998 166.3 135.401 165.499ZM133.901 163.999C134.299 163 134.8 162.25 135.401 161.749C136.001 161.251 136.498 160.501 136.901 159.499L136.3 159.798C135.898 159.798 135.7 159.4 135.7 158.599L135.1 157.699L133.901 163.999ZM135.701 155.298L138.101 154.399L145.3 127.099C145.698 125.5 146.097 123.902 146.5 122.298C146.898 120.7 147.198 118.999 147.4 117.198C147.4 116.598 147.348 115.899 147.25 115.098C147.147 114.301 147.101 113.499 147.101 112.698C147.297 110.702 148 109.098 149.201 107.898C150.402 106.698 151.301 104.898 151.901 102.499C152.698 99.101 153.5 95.5 154.3 91.698C155.097 87.901 155.599 84.198 155.8 80.598C157 79.998 157.648 79.548 157.75 79.248C157.849 78.948 157.999 78.1 158.2 76.698C156.596 77.701 155.2 79.698 154 82.698C152.8 85.698 152.097 88.6 151.9 91.398V93.498C150.897 94.501 150.048 96 149.35 97.998C148.647 99.999 147.999 102.301 147.4 104.897C146.799 107.499 146.247 110.1 145.75 112.697C145.249 115.299 144.799 117.6 144.4 119.597C142.999 125.4 141.447 131.249 139.75 137.147C138.05 143.05 136.699 149.102 135.701 155.298ZM150.401 68.899C150.401 69.499 150.297 69.799 150.101 69.799C149.097 69.799 148.601 69.101 148.601 67.699C148.601 66.902 148.648 65.951 148.75 64.849C148.849 63.752 148.9 62.899 148.9 62.299C149.697 63.701 150.147 64.849 150.25 65.749C150.35 66.649 150.401 67.698 150.401 68.899ZM149.201 62.299V61.699C149 61.901 148.901 62.102 148.901 62.299H149.201ZM152.201 57.198C151.399 58.6 150.8 59.5 150.401 59.898C149.998 60.301 149.599 60.901 149.201 61.698C149.201 60.7 149.3 59.701 149.501 58.698C149.698 57.7 150.598 57.198 152.201 57.198ZM185.202 145.099L187.602 144.798C187 140.402 186.448 135.602 185.952 130.399C185.45 125.201 184.399 121.203 182.802 118.399C182.202 117.602 181.902 116.703 181.902 115.699C181.902 114.701 182.099 113.801 182.502 113C182.9 112.203 183.104 111.303 183.104 110.299C183.104 107.9 182.752 104.801 182.053 101C181.35 97.203 180.403 94.203 179.203 92C180.201 91.4 180.703 90.903 180.703 90.5C180.703 89.9 180.502 89.202 180.103 88.4C179.099 89.6 178.603 90.5 178.603 91.1C178.603 91.7 178.603 92.801 178.603 94.4C178.603 95.6 178.65 97.002 178.751 98.6C178.851 100.204 179.3 101.501 180.103 102.5C179.699 102.902 179.501 103.399 179.501 104C179.698 110 180.149 115.203 180.853 119.6C181.55 124.001 181.902 127.901 181.902 131.299C181.902 131.9 181.851 132.551 181.752 133.25C181.65 133.953 181.604 134.6 181.604 135.199C180.202 128 179.1 120.752 178.303 113.449C177.502 106.15 176.699 98.703 175.903 91.099C175.501 91.699 175.303 92.702 175.303 94.099C175.303 95.102 175.35 96.101 175.453 97.099C175.551 98.102 175.603 99.101 175.603 100.099C175.603 109.099 174.449 117.499 172.152 125.298C169.851 133.099 167.699 140.5 165.703 147.499C168.103 146.5 169.902 145.999 171.103 145.999C172.302 145.999 174.298 145.802 177.103 145.398C177.9 145.398 178.453 145.249 178.751 144.948C179.052 144.648 179.399 144.499 179.802 144.499C179.999 144.499 180.251 144.648 180.552 144.948C180.853 145.249 181.101 145.398 181.302 145.398H183.402L182.502 139.698C182.9 140.702 183.252 141.648 183.553 142.548C183.852 143.448 184.399 144.302 185.202 145.099ZM188.801 172.399C188.6 171.602 188.5 171.001 188.5 170.598C188.5 170.2 188.098 169.998 187.301 169.998C183.701 170.4 180.799 171.15 178.602 172.248C176.399 173.349 175.301 174.099 175.301 174.497H175.602C175.198 174.497 174.852 174.249 174.551 173.747C174.25 173.249 173.899 172.997 173.5 172.997C172.699 172.997 171.648 173.349 170.352 174.046C169.047 174.749 168.2 175.599 167.801 176.597C167.399 175.599 167.098 175.097 166.901 175.097C166.7 175.298 166.602 175.499 166.602 175.697C167 176.5 167.299 177 167.5 177.197C167.697 177.398 168.199 177.498 169 177.498C170.398 177.498 171.297 176.898 171.701 175.697C171.701 176.297 171.898 176.597 172.301 176.597C173.299 176.597 174.748 176.249 176.651 175.546C178.549 174.849 180.2 174.3 181.602 173.898L188.801 172.399ZM167.202 187.998C167.202 188.199 167.3 188.4 167.501 188.598C167.501 188.401 167.45 188.297 167.353 188.297C167.248 188.297 167.202 188.199 167.202 187.998ZM168.401 190.097C167.999 189.699 167.801 189.398 167.801 189.197C167.801 189 167.697 188.799 167.5 188.597L169 189.197L168.401 190.097ZM169 189.197V186.498C169 185.898 169.1 185.5 169.301 185.297C169.699 185.701 169.901 186.498 169.901 187.697C169.901 188.5 169.602 189 169 189.197ZM175.602 193.097L176.5 194.898C175.901 194.701 175.602 194.101 175.602 193.097ZM181.901 135.798C181.901 136.399 181.901 137.05 181.901 137.749C181.901 138.452 182.001 139.099 182.202 139.698L181.901 135.798ZM190 169.999H189.701L190.301 172.099V170.298L190 169.999ZM193 167.899C193 167.297 192.799 166.999 192.4 166.999C191.998 166.999 191.8 167.298 191.8 167.899H193ZM193.602 170.899C193.198 170.501 193 170.251 193 170.149C193 170.049 192.598 169.999 191.801 169.999C191.998 170.2 192.102 170.599 192.102 171.198C192.702 171.198 193.198 171.1 193.602 170.899ZM193 35.299C193.197 35.299 193.498 35.102 193.9 34.699L193.601 34.399L193 35.299ZM201.702 44.299H202.001L201.401 43.699C200.999 43.699 200.698 44.852 200.501 47.149C200.3 49.451 200.202 51.4 200.202 52.999C200.202 54.002 200.3 54.851 200.501 55.549C200.698 56.252 200.999 56.702 201.401 56.899L201.702 44.299ZM203.5 33.499C203.098 34.502 202.75 35.351 202.451 36.049C202.15 36.752 201.898 37.502 201.701 38.299C201.701 37.3 201.748 36.302 201.851 35.299C201.949 34.3 201.999 33.199 201.999 31.999L203.5 33.499ZM205 47.299L204.102 52.999C203.698 51.799 203.45 50.201 203.352 48.199C203.248 46.202 202.797 44.899 202 44.299C203 44.299 203.6 44.552 203.801 45.049C203.998 45.55 204.401 46.3 205 47.299Z" fill="black"/>
<path d="M0 68.102C0.999 67.502 1.598 67.103 1.8 66.902C1.8 68.102 1.598 68.955 1.2 69.452C0.796999 69.953 0.6 70.605 0.6 71.402L0 68.102ZM0.6 72.002C1.397 73.005 1.996 73.802 2.4 74.402C2.798 75.002 3.197 75.804 3.6 76.802V74.402C3.6 73.202 3.647 72.054 3.75 70.952C3.848 69.855 3.999 68.702 4.2 67.502C4.2 65.304 3.9 62.852 3.3 60.152C2.7 57.452 2.4 54.902 2.4 52.502C2.4 50.903 3.698 50.102 6.3 50.102C5.297 48.705 4.749 47.102 4.65 45.302C4.547 43.502 4.5 42.002 4.5 40.802C4.697 40.202 5.1 39.902 5.7 39.902C6.699 39.902 7.598 40.704 8.4 42.302C9.797 40.906 10.5 39.105 10.5 36.902C10.5 35.505 10.397 34.403 10.2 33.602L16.2 34.202V33.902C16.2 33.504 16.299 33.105 16.5 32.702C16.697 32.304 16.8 31.802 16.8 31.202L17.4 30.902C18.399 30.705 18.9 30.555 18.9 30.452C18.9 30.353 18.999 29.805 19.2 28.802C20.4 29.805 21.347 30.452 22.05 30.752C22.749 31.052 23.897 31.905 25.5 33.302L27.3 32.402V32.102C27.3 31.704 27.399 31.253 27.6 30.752C27.797 30.255 27.9 29.805 27.9 29.402C27.497 29.004 27.3 28.502 27.3 27.902C27.3 27.705 27.347 27.555 27.45 27.452C27.549 27.353 27.6 27.203 27.6 27.002C27.998 27.405 28.2 28.005 28.2 28.802C28.2 29.604 28.397 30.302 28.8 30.902L30 27.902L29.1 33.602L30.3 34.802L31.5 32.402L31.8 36.302C31.8 42.705 31.397 49.005 30.6 55.202C29.798 61.403 29.4 67.905 29.4 74.702C29.4 77.903 29.597 80.903 30 83.702C30.398 86.505 31.298 88.905 32.7 90.902C34.097 94.502 35.199 98.252 36 102.152C36.797 106.052 37.448 110.055 37.95 114.152C38.447 118.254 38.85 122.303 39.15 126.301C39.45 130.304 39.797 134.204 40.2 138.001C40.2 138.601 40.2 139.253 40.2 139.951C40.2 140.654 40.299 141.301 40.5 141.901V142.201C40.898 143.804 41.1 144.803 41.1 145.201C41.1 146.204 40.898 146.902 40.5 147.301C40.5 148.905 40.598 149.851 40.8 150.152C40.997 150.452 41.1 151.103 41.1 152.101L42 139.501C42.398 135.301 42.947 131.054 43.65 126.751C44.348 122.452 44.7 118.304 44.7 114.301L49.2 77.401L47.7 78.601C47.7 76.801 47.447 75.301 46.95 74.101C46.449 72.901 46.2 71.902 46.2 71.101C46.2 70.102 46.299 69.404 46.5 69.001L48.3 63.001C48.698 62.002 48.999 61.004 49.2 60.001C49.397 59.002 49.5 58.004 49.5 57.001C49.298 56.401 49.2 55.501 49.2 54.301C49.2 53.303 49.247 52.155 49.35 50.851C49.448 49.553 49.898 48.704 50.7 48.301L51.3 47.701C51.698 47.504 52.149 47.401 52.65 47.401C53.147 47.401 53.597 47.303 54 47.101C53.798 46.304 53.7 45.203 53.7 43.801C53.7 42.203 54 40.304 54.6 38.101L55.2 33.301C55.8 32.701 56.4 32.401 57 32.401C57.6 32.401 57.999 32.753 58.2 33.451C58.397 34.154 58.697 35.002 59.1 36.001C60.496 34.604 61.5 32.851 62.1 30.751C62.7 28.651 63 26.504 63 24.301L69 26.701C69.197 25.702 69.497 25.051 69.9 24.751C70.298 24.451 70.598 23.804 70.8 22.801H71.7H72.9L73.5 21.301C74.897 22.501 75.848 23.303 76.35 23.701C76.847 24.104 77.597 25.304 78.6 27.301L81 26.701C81 26.303 81.098 26.002 81.3 25.801C81.497 25.604 81.6 25.304 81.6 24.901V24.601C81.998 24.803 82.298 25.304 82.5 26.101C82.697 26.101 82.847 26.002 82.95 25.801C83.049 25.604 83.199 25.501 83.4 25.501V25.801L82.5 27.901L83.4 30.001C83.597 29.401 84.197 28.801 85.2 28.201L83.4 36.301L84 38.401C82.997 40.604 82.2 42.854 81.6 45.151C81 47.453 80.4 49.801 79.8 52.201H80.1C80.897 49.604 81.698 47.054 82.5 44.551C83.297 42.053 84.197 39.601 85.2 37.201C84.999 37.004 84.797 36.901 84.6 36.901L85.5 36.001L85.2 37.201C86.199 37.801 86.799 38.954 87 40.651C87.197 42.353 87.3 43.703 87.3 44.701C87.3 49.304 86.897 53.654 86.1 57.751C85.298 61.853 84.9 66.203 84.9 70.801C84.9 73.004 84.999 75.053 85.2 76.951C85.397 78.854 85.5 80.902 85.5 83.101C85.5 85.904 86.499 88.553 88.5 91.051C90.497 93.554 91.5 96.301 91.5 99.301L93.3 108.001C93.9 111.202 94.35 114.353 94.65 117.451C94.95 120.554 95.297 123.704 95.7 126.901L96.3 130.201C96.3 130.402 96.399 130.702 96.6 131.1C96.797 131.503 96.9 131.902 96.9 132.3C96.9 133.303 96.698 134.002 96.3 134.401C96.3 136.604 96.549 138.704 97.05 140.701C97.547 142.702 97.899 144.803 98.1 147.001L100.8 137.101C100.997 136.304 101.1 135.203 101.1 133.801C101.1 132.202 100.898 130.454 100.5 128.551C100.097 126.653 99.9 124.702 99.9 122.701C99.9 119.902 100.397 115.951 101.4 110.85C102.399 105.75 103.65 100.154 105.15 94.05C106.65 87.952 108.3 81.6 110.1 75C111.9 68.4 113.648 62.25 115.35 56.55C117.047 50.85 118.598 45.9 120 41.7C121.397 37.5 122.399 34.701 122.999 33.3C123.397 32.302 123.899 31.252 124.499 30.15C125.101 29.053 125.7 28.003 126.3 27L130.8 21.3C132.999 18.502 135.347 15.9 137.851 13.5C140.349 11.1 142.8 8.503 145.201 5.7L146.701 4.5C148.097 4.102 149.447 3.352 150.75 2.25C152.049 1.153 153.498 0.403 155.102 0C151.698 2.602 148.149 5.653 144.452 9.15C140.749 12.651 138.001 16.303 136.202 20.1C139.001 17.901 141.348 15.501 143.251 12.9C145.149 10.303 147.798 8.002 151.202 6L146.702 11.1H147.001C148.001 10.101 148.952 9.253 149.853 8.55C150.751 7.852 151.699 7.102 152.703 6.3C152.9 6.502 153.199 6.6 153.603 6.6C154.001 6.6 155.05 5.901 156.751 4.5C158.448 3.103 160.099 1.903 161.702 0.900002L163.802 0.299999C162.4 1.5 160.999 2.602 159.603 3.6C158.201 4.603 157.099 5.901 156.302 7.5L159.603 5.7C159.798 5.901 159.902 6.201 159.902 6.6C159.902 7.003 159.4 7.8 158.402 9C157.4 10.2 156.199 11.55 154.802 13.05C153.4 14.55 151.999 16.102 150.603 17.7C149.201 19.303 148.099 20.7 147.302 21.9C146.298 23.503 145.249 25.05 144.152 26.55C143.05 28.05 142.002 29.602 141.002 31.2L140.104 33C140.502 33.802 140.704 34.401 140.704 34.8C142.901 32.602 144.852 30.352 146.554 28.05C148.251 25.753 150.103 23.503 152.105 21.3L151.503 22.8C150.702 23.602 150.003 24.45 149.403 25.35C148.803 26.25 148.503 27.202 148.503 28.2L134.105 55.8L133.503 57.9L133.804 57.6C134.802 55.8 135.95 54 137.253 52.2C138.552 50.4 139.7 48.703 140.704 47.1L144.003 42L145.204 41.1L145.503 40.8C145.7 40.8 145.804 40.852 145.804 40.95C145.804 41.053 145.902 41.1 146.105 41.1V42L145.503 43.2L124.503 133.2C124.101 135 123.702 136.65 123.304 138.15C122.902 139.65 122.704 141.201 122.704 142.799L123.903 141.599C124.301 142.401 124.503 142.903 124.503 143.099C124.302 143.502 124.204 143.999 124.204 144.599C124.204 145.401 124.401 146.052 124.804 146.549C125.202 147.051 125.404 147.702 125.404 148.499C125.404 148.902 125.353 149.249 125.254 149.549C125.152 149.849 125.106 150.2 125.106 150.599L123.305 156.299C122.903 157.7 122.705 159.252 122.705 160.949C122.705 162.65 122.652 164.248 122.555 165.748C122.451 167.248 122.153 168.5 121.655 169.498C121.154 170.502 120.103 170.998 118.505 170.998C118.903 172.199 119.105 173.098 119.105 173.699C119.105 174.101 119.053 174.551 118.955 175.049C118.852 175.551 118.805 176 118.805 176.399V179.399C118.205 179.999 117.802 180.299 117.605 180.299C117.005 180.299 116.503 179.998 116.105 179.399C115.702 178.799 115.303 178.2 114.905 177.598C113.302 178.602 112.505 180.403 112.505 182.998C112.505 184.4 112.603 185.398 112.805 185.998L108.605 185.398C108.605 185.998 108.703 186.5 108.905 186.898C109.102 187.3 109.205 187.902 109.205 188.699C108.005 187.498 107.302 186.402 107.105 185.398C106.303 186.597 105.905 187.3 105.905 187.498V188.699L105.605 188.998L105.305 189.299H104.705C104.705 189.5 104.855 189.748 105.155 190.049C105.455 190.348 105.605 190.699 105.605 191.098C105.005 190.498 104.302 190.2 103.505 190.2L103.205 190.8C104.002 190.8 104.804 191.202 105.605 191.999C105.403 191.999 105.253 191.952 105.155 191.849C105.052 191.751 104.902 191.701 104.705 191.701L103.505 191.099C103.702 191.302 103.805 191.601 103.805 191.999L104.405 193.2C104.203 193.401 103.904 193.499 103.505 193.499C102.703 193.499 102.005 193.05 101.405 192.149C100.805 191.248 100.303 190.499 99.905 189.899H99.005C98.602 189.102 98.353 188.45 98.255 187.95C98.152 187.452 97.805 187.003 97.205 186.598L95.405 187.799C95.405 188.399 95.353 189.051 95.255 189.748C95.152 190.451 95.105 191.098 95.105 191.699C95.105 192.5 95.152 193.199 95.255 193.799C95.353 194.399 95.405 194.998 95.405 195.598C94.805 194.797 94.505 193.897 94.505 192.899C94.505 191.901 94.402 190.903 94.205 189.899C93.802 190.499 93.554 191.202 93.455 191.999C93.352 192.802 93.202 193.599 93.005 194.399H92.705L93.905 186.598L92.405 184.498L91.205 187.799L90.905 179.998C90.905 179.398 90.605 178.799 90.005 178.199C90.005 178.002 90.103 177.801 90.305 177.597C90.305 177.402 90.404 177.199 90.605 176.997L90.905 178.497L92.105 173.698C91.702 173.3 91.505 172.798 91.505 172.198V171.897C91.505 171.1 91.805 170.096 92.405 168.897V166.797C92.203 166.6 92.002 166.496 91.805 166.496L90.905 170.396L90.305 168.595C89.902 168.595 89.602 168.548 89.405 168.447C89.203 168.347 88.904 168.297 88.505 168.297C88.702 169.496 88.903 170.651 89.105 171.746C89.302 172.848 89.602 173.898 90.005 174.896L89.405 177.296L88.505 176.095C88.505 176.697 88.805 177.296 89.405 177.896C88.402 177.699 87.853 177.4 87.755 176.996C87.652 176.598 87.403 175.797 87.005 174.596C87.005 174.198 87.052 173.996 87.155 173.996C87.254 173.996 87.305 173.799 87.305 173.396C85.702 169 84.202 164.546 82.805 160.046C81.404 155.546 80.302 150.999 79.505 146.397C79.505 145.999 79.402 145.647 79.205 145.346C79.004 145.046 78.802 144.7 78.605 144.296L78.305 144.897C79.102 148.098 79.505 151.299 79.505 154.497C79.505 157.698 80.105 160.698 81.305 163.496L81.605 165.596C81.605 166.6 81.605 167.149 81.605 167.246C81.605 167.35 81.501 167.396 81.305 167.396C80.705 167.396 80.002 166.298 79.205 164.095C78.404 161.898 77.602 159.296 76.805 156.296C76.004 153.296 75.254 150.296 74.555 147.296C73.852 144.296 73.402 141.999 73.205 140.397L69.905 124.197L68.705 132.897C67.702 136.9 66.952 139.999 66.455 142.197C65.954 144.4 65.602 146.2 65.405 147.596C65.203 148.998 65.053 150.348 64.955 151.647C64.852 152.95 64.702 154.698 64.505 156.897L63.605 166.796C63.605 168.999 63.501 171.296 63.305 173.696C63.103 176.094 62.804 178.397 62.405 180.594L61.505 185.094C61.102 187.096 60.802 189.295 60.605 191.696C60.403 194.094 60.305 196.495 60.305 198.895C60.305 200.094 60.352 201.295 60.455 202.495C60.554 203.696 60.605 204.792 60.605 205.796C60.605 207.192 60.403 208.843 60.005 210.745C59.602 212.643 59.302 213.993 59.105 214.796C58.303 210.993 57.905 206.892 57.905 202.495C57.905 199.093 58.004 195.845 58.205 192.745C58.402 189.647 58.505 186.798 58.505 184.196H58.205C57.202 188.198 56.804 192.346 57.005 196.645C57.202 200.944 57.005 205.391 56.405 209.995L55.805 202.495C55.805 203.493 55.702 204.446 55.505 205.345C55.303 206.245 55.205 207.193 55.205 208.197C55.205 208.595 55.252 208.994 55.355 209.396C55.453 209.794 55.505 210.193 55.505 210.595C54.703 210.792 54.305 211.093 54.305 211.495C54.305 212.095 54.404 212.696 54.605 213.296C54.605 214.692 54.802 215.593 55.205 215.995L54.605 215.696L54.305 215.995C54.103 215.995 53.902 215.696 53.705 215.095C53.504 214.495 53.302 213.896 53.105 213.296V214.796L52.505 213.595L52.205 214.796C51.005 214.796 50.302 213.792 50.105 211.796C49.903 209.794 49.702 208.093 49.505 206.696L48.905 204.895C48.502 203.891 48.103 202.391 47.705 200.395L45.905 195.295V196.795C45.703 196.195 45.605 195.492 45.605 194.695L45.005 192.894C45.005 194.492 45.155 195.79 45.455 196.794C45.755 197.792 46.205 198.991 46.805 200.394V201.894C48.005 205.091 48.905 208.494 49.505 212.093L46.805 206.093L46.505 206.394C46.903 207.593 47.302 208.742 47.705 209.843C48.103 210.941 48.502 212.093 48.905 213.294L48.305 214.493V214.794C48.305 214.991 48.404 215.192 48.605 215.394L49.505 216.593C49.505 216.79 49.552 216.941 49.655 217.044C49.754 217.142 49.805 217.292 49.805 217.493L46.805 215.694C44.602 214.891 42.905 212.942 41.705 209.842C40.505 206.74 39.404 204.092 38.405 201.893L37.805 199.493C37.004 197.694 36.352 195.893 35.855 194.093C35.353 192.294 34.903 190.493 34.505 188.695L33.605 186.894L32.105 185.994C32.503 188.994 32.953 191.746 33.455 194.244C33.952 196.742 34.603 199.39 35.405 202.195C35.002 202.195 34.505 201.392 33.905 199.795C33.305 198.191 32.705 197.094 32.105 196.494L31.805 194.695C29.804 189.097 28.154 183.398 26.855 177.593C25.552 171.796 24.403 165.997 23.405 160.195C23.405 159.398 23.203 158.596 22.805 157.795L22.505 158.095C22.903 160.899 23.152 163.645 23.255 166.344C23.353 169.045 23.602 171.797 24.005 174.594L24.905 180.295C24.905 180.895 24.952 181.494 25.055 182.094C25.154 182.696 25.205 183.399 25.205 184.196C25.205 184.598 25.102 184.796 24.905 184.796C24.305 184.599 23.602 183.196 22.805 180.595C22.004 177.999 21.254 174.947 20.555 171.447C19.852 167.949 19.205 164.396 18.605 160.797C18.005 157.197 17.602 154.399 17.405 152.398L9.005 94.797C8.602 92.8 8.452 90.85 8.555 88.947C8.654 87.049 8.504 85.098 8.105 83.097L7.205 84.897C6.404 83.299 5.654 81.799 4.955 80.397C4.252 79 3.802 77.8 3.605 76.797C3.605 76.999 3.652 77.097 3.755 77.097C3.853 77.097 3.905 77.2 3.905 77.397C3.703 77.599 3.404 77.697 3.005 77.697C2.203 77.697 1.603 76.9 1.205 75.297C0.796 73.703 0.6 72.602 0.6 72.002ZM21.299 168.001H21.599C21.599 164.401 21.397 160.755 20.999 157.052C20.596 153.354 20.197 149.505 19.799 145.502L19.499 142.802C19.096 140.205 18.749 137.403 18.449 134.403C18.149 131.403 17.849 128.506 17.549 125.703C17.249 122.904 16.898 120.303 16.499 117.903C16.096 115.503 15.496 113.506 14.699 111.903C13.898 110.703 13.499 109.704 13.499 108.903C13.499 108.106 13.748 107.356 14.249 106.653C14.746 105.954 14.999 105.106 14.999 104.103C14.999 101.506 14.699 98.206 14.099 94.203C13.499 90.204 12.599 86.806 11.399 84.003C12.196 83.403 12.599 82.906 12.599 82.503C12.599 81.706 12.495 81.003 12.299 80.403C11.296 81.805 10.748 82.606 10.649 82.803C10.546 83.005 10.499 84.106 10.499 86.103C10.499 87.504 10.546 89.103 10.649 90.903C10.748 92.703 11.197 94.105 11.999 95.103C11.999 95.305 11.947 95.506 11.849 95.703C11.745 95.904 11.699 96.106 11.699 96.303C11.699 99.106 11.948 101.806 12.449 104.403C12.946 107.005 13.199 109.404 13.199 111.603L13.799 116.404C14.798 124.204 15.749 131.905 16.649 139.504C17.549 147.108 18.796 154.705 20.399 162.304L21.299 168.001ZM33 40.502C32.597 41.903 32.348 43.202 32.25 44.402C32.147 45.602 31.997 46.905 31.8 48.302V50.402L32.4 50.702L33.9 40.202C33.698 40.005 33.399 39.902 33 39.902C32.798 39.902 32.7 40.005 32.7 40.202L33 40.502ZM36.299 33.002L33.899 36.002L35.099 32.102L36.299 33.002ZM33.9 40.202C34.899 40.403 35.447 40.605 35.55 40.802C35.649 41.004 35.897 41.702 36.3 42.902L35.4 47.102C34.997 46.305 34.847 45.105 34.95 43.502C35.048 41.903 34.696 40.801 33.9 40.202ZM37.199 78.902C36.796 78.705 36.196 78.602 35.399 78.602C35.399 78.405 35.498 78.105 35.699 77.702C35.896 77.304 36.097 77.102 36.299 77.102L36.899 78.302L37.199 78.902ZM36 204.001C35.798 204.001 35.7 203.702 35.7 203.101C35.7 202.9 35.597 202.601 35.4 202.203L36 204.001ZM42 154.202L42.3 154.502C43.5 152.304 44.348 149.102 44.85 144.902C45.347 140.702 45.797 137.101 46.2 134.101C46.598 131.702 46.997 129.053 47.4 126.152C47.798 123.255 48.197 120.554 48.6 118.051C48.998 115.553 49.298 113.355 49.5 111.451C49.697 109.553 49.8 108.301 49.8 107.701C49.8 106.702 49.65 105.652 49.35 104.551C49.05 103.454 48.9 102.503 48.9 101.701C48.9 101.504 49.05 100.801 49.35 99.601C49.65 98.401 49.996 97.102 50.4 95.701C50.798 94.304 51.197 92.902 51.6 91.501C51.998 90.104 52.298 88.904 52.5 87.901H51.3V86.701C51.698 86.701 52.097 86.804 52.5 87.001C52.5 86.401 52.547 85.853 52.65 85.351C52.749 84.854 52.8 84.301 52.8 83.701C52.8 82.501 52.598 80.902 52.2 78.901C53.4 78.301 54 77.804 54 77.401C54 77.204 53.948 77.003 53.85 76.801C53.746 76.604 53.7 76.304 53.7 75.901C52.5 76.904 51.6 78.503 51 80.701C50.4 82.904 50.1 84.901 50.1 86.701C50.1 87.502 50.198 88.102 50.4 88.501L49.5 89.701C49.097 91.702 48.647 94.553 48.15 98.251C47.649 101.954 47.4 105.001 47.4 107.401L46.5 114.901C45.098 126.104 43.898 137.401 42.9 148.8L42 154.202ZM42.9 164.1C43.097 167.1 43.697 170.303 44.7 173.702C44.7 164.903 45.3 156.302 46.5 147.902V145.502L46.2 145.802C45.6 148.802 44.85 151.755 43.95 154.653C43.05 157.554 42.6 160.503 42.6 163.502C42.796 163.702 42.9 163.905 42.9 164.1ZM44.1 62.402L45.9 61.802C45.9 62.805 45.548 63.452 44.85 63.752C44.147 64.052 43.8 64.403 43.8 64.802L44.1 62.402ZM43.799 66.002C44.999 67.605 45.697 69.405 45.899 71.402C44.699 71.402 44.047 70.905 43.949 69.902C43.846 68.903 43.799 67.605 43.799 66.002ZM47.4 188.702C47.597 191.702 48.197 194.897 49.2 198.302C48.999 197.101 48.9 195.902 48.9 194.702C48.9 193.501 48.9 192.405 48.9 191.401C48.9 191.204 48.947 190.651 49.05 189.751C49.149 188.851 49.2 187.905 49.2 186.901C49.2 185.903 49.2 185.003 49.2 184.202C49.2 183.405 49.2 182.804 49.2 182.401L49.5 174.6L48 173.702C47.597 175.102 47.25 176.602 46.95 178.202C46.65 179.804 46.5 181.304 46.5 182.702C46.898 183.704 47.1 184.702 47.1 185.702C47.1 186.704 47.198 187.702 47.4 188.702ZM49.799 218.1L50.099 218.401L49.799 218.702L49.499 218.401C49.096 217.999 48.899 217.698 48.899 217.501L49.799 218.1ZM50.1 217.501H49.8L50.4 217.802L50.1 217.501ZM77.699 153.601H77.999L77.699 151.801C77.099 145.605 76.246 139.403 75.149 133.201C74.047 127.004 73.297 120.803 72.899 114.6L71.699 110.701L71.999 111.901L70.799 120.001L73.499 134.101C73.897 136.501 74.347 138.902 74.849 141.301C75.346 143.701 75.899 146.101 76.499 148.501L77.699 153.601ZM81.299 24.602H81.599V24.302L81.299 24.602ZM82.799 39.902C82.597 39.902 82.499 39.705 82.499 39.302L82.199 40.202L82.799 39.902ZM83.699 26.102V25.802L83.399 26.102H83.699ZM84.299 38.702L84.599 36.902L84.299 36.602V37.502L83.999 38.402L84.299 38.702ZM84.9 38.402L84.3 40.802L84.9 41.702L85.5 40.802V39.302C85.5 38.304 85.397 37.605 85.2 37.202C85.2 37.403 85.149 37.605 85.05 37.802C84.946 38.003 84.9 38.205 84.9 38.402ZM86.4 187.801C86.798 186.803 87.15 185.953 87.45 185.25C87.75 184.553 88.097 183.9 88.5 183.301C88.097 184.303 87.9 185.25 87.9 186.151C87.9 187.052 87.797 188.003 87.6 189.001L86.4 187.801ZM89.699 30.301C88.499 30.704 87.496 31.403 86.699 32.401C87.097 31.004 87.698 29.902 88.499 29.101C88.897 29.303 89.146 29.504 89.249 29.701C89.348 29.903 89.498 30.105 89.699 30.301ZM89.1 47.102L88.5 46.802C88.097 46.802 87.9 47.004 87.9 47.402L87.3 54.002C87.3 54.204 87.249 54.302 87.15 54.302C87.047 54.302 87 54.406 87 54.602C87 54.804 87.047 55.005 87.15 55.202C87.249 55.403 87.3 55.605 87.3 55.802H87.6C87.797 54.406 87.998 53.004 88.2 51.602C88.397 50.205 88.696 48.705 89.1 47.102ZM89.1 47.102C90.098 47.102 90.647 47.205 90.75 47.402C90.848 47.604 91.097 48.204 91.5 49.202L90.9 53.102C89.897 52.103 89.597 50.955 90 49.652C90.398 48.353 90.098 47.505 89.1 47.102ZM91.5 40.801L89.4 43.501L90.6 39.901L91.5 40.801ZM89.4 177.901L89.7 178.501C89.897 178.501 90 178.403 90 178.202L89.4 177.302V177.901ZM90.9 170.401C90.698 171.202 90.497 171.952 90.3 172.651C90.098 173.354 90 174.104 90 174.901C90 175.102 90.197 175.801 90.6 177.001C90.6 176.204 90.698 175.454 90.9 174.751C91.097 174.054 91.298 173.204 91.5 172.202V171.901L90.9 170.401ZM124.499 118.502C124.499 120.705 123.601 123.452 121.8 126.752C120 130.052 119.1 133.905 119.1 138.302C119.1 139.502 119.198 140.403 119.4 141.002C118.598 141.405 118.149 141.705 118.05 141.902C117.947 142.103 117.9 142.703 117.9 143.702C120.698 142.305 122.101 139.103 122.101 134.101C122.101 133.304 121.997 132.705 121.8 132.301L122.7 131.402C123.098 129.203 123.497 127.202 123.899 125.402C124.297 123.601 124.897 121.605 125.7 119.402L126.899 115.801C127.696 113.402 128.399 110.355 128.999 106.652C129.601 102.953 130.2 99.105 130.8 95.102C131.4 91.103 131.948 87.002 132.45 82.802C132.946 78.602 133.499 74.702 134.1 71.102C132.098 79.704 130.448 86.805 129.149 92.402C127.846 98.004 126.848 102.452 126.149 105.752C125.446 109.052 124.95 111.504 124.649 113.102C124.35 114.706 124.2 115.906 124.2 116.703C124.2 117.705 124.297 118.304 124.499 118.502ZM127.799 153.601C126.397 152.003 125.699 150.203 125.699 148.202C126.898 148.202 127.545 148.853 127.648 150.152C127.749 151.455 127.799 152.603 127.799 153.601ZM125.7 157.202C125.7 156.405 125.948 155.805 126.45 155.402C126.946 155.004 127.397 154.502 127.8 153.902L127.499 156.902L125.7 157.202ZM139.499 52.502V52.202L138.601 53.402L137.701 56.402L139.499 52.502Z" fill="black"/>
</svg>
